/*
  evocaloid_smf.ino
           auther J.Ura(NSX-1p)
                 Copyright(c) 2013 Yamaha Corporation
 */
#include <TimerOne.h>
#include <avr/pgmspace.h> 

int led = 13;
unsigned long read_ptr;
unsigned long tempo;
unsigned long delta_time;
unsigned long tick_count;
unsigned char STATUS;
unsigned long TIMER;
int STATE;

prog_uchar SMF_ROM[] PROGMEM  ={
  0x4D,0x54,0x68,0x64,0x00,0x00,0x00,0x06,0x00,0x00,0x00,0x01,0x01,0xE0,0x4D,0x54,
  0x72,0x6B,0x00,0x00,0x2B,0xDF,0x00,0xFF,0x20,0x01,0x00,0x00,0xFF,0x03,0x00,0x00,
  0xFF,0x58,0x04,0x03,0x02,0x18,0x08,0x00,0xFF,0x59,0x02,0xFF,0x00,0x00,0xFF,0x51,
  0x03,0x0B,0x71,0xB0,0x00,0xFF,0x20,0x01,0x00,0x00,0xF0,0x05,0x7E,0x7F,0x09,0x01,
  0xF7,0x64,0xFF,0x20,0x01,0x00,0x00,0xF0,0x05,0x7E,0x7F,0x09,0x03,0xF7,0x64,0xFF,
  0x20,0x01,0x00,0x00,0xF0,0x08,0x43,0x10,0x4C,0x00,0x00,0x7E,0x00,0xF7,0x32,0xFF,
  0x20,0x01,0x00,0x00,0xF0,0x09,0x43,0x10,0x4C,0x02,0x01,0x00,0x01,0x07,0xF7,0x0A,
  0xFF,0x20,0x01,0x00,0x00,0xF0,0x08,0x43,0x10,0x4C,0x02,0x01,0x02,0x10,0xF7,0x0A,
  0xFF,0x20,0x01,0x00,0x00,0xF0,0x08,0x43,0x10,0x4C,0x02,0x01,0x10,0x08,0xF7,0x0A,
  0xFF,0x20,0x01,0x00,0x00,0xF0,0x08,0x43,0x10,0x4C,0x02,0x01,0x14,0x40,0xF7,0x14,
  0xFF,0x20,0x01,0x00,0x00,0xF0,0x09,0x43,0x10,0x4C,0x02,0x01,0x20,0x44,0x10,0xF7,
  0x0A,0xFF,0x20,0x01,0x00,0x00,0xF0,0x09,0x43,0x10,0x4C,0x02,0x01,0x40,0x50,0x10,
  0xF7,0x05,0xFF,0x20,0x01,0x00,0x00,0xF0,0x09,0x43,0x10,0x4C,0x02,0x01,0x42,0x00,
  0x3D,0xF7,0x05,0xFF,0x20,0x01,0x00,0x00,0xF0,0x09,0x43,0x10,0x4C,0x02,0x01,0x44,
  0x00,0x04,0xF7,0x05,0xFF,0x20,0x01,0x00,0x00,0xF0,0x09,0x43,0x10,0x4C,0x02,0x01,
  0x46,0x00,0x40,0xF7,0x05,0xFF,0x20,0x01,0x00,0x00,0xF0,0x09,0x43,0x10,0x4C,0x02,
  0x01,0x48,0x00,0x40,0xF7,0x05,0xFF,0x20,0x01,0x00,0x00,0xF0,0x09,0x43,0x10,0x4C,
  0x02,0x01,0x4A,0x00,0x40,0xF7,0x05,0xFF,0x20,0x01,0x00,0x00,0xF0,0x08,0x43,0x10,
  0x4C,0x02,0x01,0x70,0x01,0xF7,0x05,0xFF,0x20,0x01,0x00,0x00,0xF0,0x08,0x43,0x10,
  0x4C,0x02,0x01,0x71,0x60,0xF7,0x05,0xFF,0x20,0x01,0x00,0x00,0xF0,0x08,0x43,0x10,
  0x4C,0x02,0x01,0x72,0x7F,0xF7,0x05,0xFF,0x20,0x01,0x00,0x00,0xF0,0x08,0x43,0x10,
  0x4C,0x02,0x01,0x73,0x60,0xF7,0x05,0xFF,0x20,0x01,0x00,0x00,0xF0,0x08,0x43,0x10,
  0x4C,0x02,0x01,0x5A,0x01,0xF7,0x05,0xFF,0x20,0x01,0x00,0x00,0xF0,0x08,0x43,0x10,
  0x4C,0x02,0x01,0x56,0x50,0xF7,0x05,0xFF,0x20,0x01,0x00,0x00,0xF0,0x08,0x43,0x10,
  0x4C,0x02,0x01,0x57,0x40,0xF7,0x05,0xFF,0x20,0x01,0x00,0x00,0xF0,0x08,0x43,0x10,
  0x4C,0x02,0x01,0x58,0x40,0xF7,0x05,0xFF,0x20,0x01,0x00,0x00,0xF0,0x08,0x43,0x10,
  0x4C,0x02,0x01,0x59,0x00,0xF7,0x81,0x61,0xB1,0x00,0x00,0x00,0xB7,0x00,0x00,0x00,
  0xB8,0x00,0x00,0x05,0xB1,0x20,0x00,0x00,0xB7,0x20,0x00,0x00,0xB8,0x20,0x00,0x05,
  0xC1,0x30,0x00,0xC7,0x20,0x00,0xC8,0x31,0x05,0xB1,0x07,0x64,0x00,0xB7,0x07,0x5A,
  0x00,0xB8,0x07,0x32,0x05,0xB1,0x0A,0x54,0x00,0xB7,0x0A,0x40,0x00,0xB8,0x0A,0x5A,
  0x05,0xB1,0x0B,0x6E,0x00,0xB8,0x0B,0x6E,0x05,0xB1,0x47,0x5A,0x00,0xB1,0x49,0x54,
  0x00,0xB8,0x47,0x50,0x05,0xB8,0x49,0x4A,0x05,0xB1,0x4A,0x64,0x00,0xB8,0x4A,0x5A,
  0x05,0xB1,0x5B,0x4A,0x00,0xB8,0x5B,0x32,0x05,0xB1,0x5D,0x28,0x00,0xB2,0x00,0x00,
  0x00,0xB4,0x00,0x00,0x00,0xB8,0x5D,0x14,0x00,0xBB,0x00,0x00,0x05,0xB2,0x20,0x00,
  0x00,0xB4,0x20,0x00,0x00,0xBB,0x20,0x00,0x05,0xC2,0x30,0x00,0xC4,0x30,0x00,0xCB,
  0x31,0x05,0xB2,0x07,0x46,0x00,0xB4,0x07,0x55,0x00,0xBB,0x07,0x41,0x05,0xB2,0x0A,
  0x69,0x00,0xB4,0x0A,0x18,0x00,0xBB,0x0A,0x14,0x05,0xB2,0x49,0x54,0x00,0xB3,0x00,
  0x00,0x00,0xB4,0x0B,0x5F,0x00,0xBB,0x0B,0x64,0x05,0xB2,0x5B,0x69,0x00,0xB3,0x20,
  0x00,0x00,0xB4,0x47,0x3C,0x00,0xBB,0x47,0x40,0x05,0xB2,0x5D,0x28,0x00,0xC3,0x2E,
  0x00,0xB4,0x4A,0x3C,0x00,0xBB,0x4A,0x32,0x05,0xB3,0x07,0x55,0x00,0xB4,0x5B,0x46,
  0x00,0xBB,0x5B,0x3C,0x05,0xB3,0x0A,0x0F,0x00,0xB4,0x5D,0x28,0x00,0xBB,0x5D,0x1E,
  0x05,0xB3,0x0B,0x6E,0x05,0xB3,0x5B,0x64,0x05,0xB3,0x5D,0x32,0x0F,0xB5,0x00,0x00,
  0x05,0xB5,0x20,0x00,0x05,0xC5,0x10,0x05,0xB5,0x07,0x64,0x05,0xB5,0x0A,0x1E,0x05,
  0xB5,0x0B,0x6E,0x05,0xB5,0x5B,0x46,0x05,0xB5,0x5D,0x28,0x0F,0xB6,0x00,0x00,0x05,
  0xB6,0x20,0x00,0x05,0xC6,0x00,0x05,0xB6,0x07,0x5A,0x05,0xB6,0x0A,0x64,0x05,0xB6,
  0x0B,0x6E,0x05,0xB6,0x5B,0x40,0x05,0xB6,0x5D,0x14,0x05,0xB0,0x07,0x7F,0x05,0xB0,
  0x0A,0x40,0x05,0xB0,0x5B,0x78,0x05,0xB0,0x5D,0x14,0x05,0xB0,0x5E,0x7F,0x28,0xBA,
  0x00,0x00,0x05,0xBA,0x20,0x00,0x05,0xCA,0x2D,0x05,0xBA,0x07,0x5A,0x05,0xBA,0x0A,
  0x0F,0x82,0x04,0xB0,0x63,0x70,0x01,0xB0,0x62,0x0C,0x01,0xB0,0x06,0x00,0x81,0x69,
  0xB2,0x0B,0x4E,0x14,0xB8,0x0B,0x54,0x05,0xB1,0x0B,0x59,0x14,0x91,0x54,0x78,0x00,
  0x92,0x51,0x58,0x00,0x92,0x4D,0x58,0x00,0x92,0x54,0x58,0x00,0x93,0x39,0x69,0x00,
  0x95,0x48,0x6E,0x00,0x95,0x45,0x6E,0x00,0x95,0x41,0x6E,0x00,0x96,0x35,0x73,0x00,
  0x96,0x48,0x6E,0x00,0x96,0x45,0x70,0x00,0x96,0x41,0x6E,0x00,0xB7,0x0B,0x7F,0x00,
  0xB7,0x5B,0x14,0x00,0xB7,0x5D,0x0A,0x00,0x97,0x29,0x73,0x00,0x98,0x54,0x78,0x0F,
  0xB8,0x0B,0x55,0x05,0xB1,0x0B,0x5A,0x0F,0xB8,0x0B,0x56,0x05,0xB1,0x0B,0x5C,0x0F,
  0xB8,0x0B,0x59,0x05,0xB1,0x0B,0x5E,0x0F,0xB8,0x0B,0x5C,0x05,0xB1,0x0B,0x61,0x0F,
  0xB8,0x0B,0x5F,0x05,0xB1,0x0B,0x65,0x0F,0xB8,0x0B,0x64,0x05,0xB1,0x0B,0x6A,0x0A,
  0xB1,0x0B,0x6D,0x05,0xB2,0x0B,0x4F,0x00,0xB8,0x0B,0x69,0x14,0xB8,0x0B,0x6E,0x0A,
  0xB8,0x0B,0x72,0x32,0xB2,0x0B,0x50,0x19,0x83,0x39,0x40,0x00,0x93,0x3C,0x66,0x23,
  0xB2,0x0B,0x51,0x00,0xBA,0x0B,0x7F,0x00,0xBA,0x5B,0x54,0x00,0xBA,0x5D,0x40,0x28,
  0xB2,0x0B,0x52,0x28,0xB2,0x0B,0x53,0x28,0xB2,0x0B,0x54,0x19,0xB1,0x0B,0x5B,0x0F,
  0xB2,0x0B,0x55,0x19,0xB1,0x0B,0x5D,0x00,0xB8,0x0B,0x52,0x02,0x81,0x54,0x40,0x00,
  0x88,0x54,0x40,0x0D,0xB2,0x0B,0x56,0x05,0x83,0x3C,0x40,0x00,0x86,0x35,0x40,0x00,
  0x86,0x48,0x40,0x00,0x86,0x45,0x40,0x00,0x86,0x41,0x40,0x00,0xB1,0x0B,0x5F,0x00,
  0x91,0x54,0x78,0x00,0x93,0x41,0x6E,0x00,0x96,0x34,0x64,0x00,0x96,0x48,0x69,0x00,
  0x96,0x45,0x6E,0x00,0x96,0x41,0x66,0x00,0x98,0x54,0x73,0x0F,0xB2,0x0B,0x57,0x05,
  0xB1,0x0B,0x63,0x00,0xB8,0x0B,0x54,0x14,0xB1,0x0B,0x68,0x00,0xB8,0x0B,0x57,0x0F,
  0xB2,0x0B,0x58,0x05,0xB1,0x0B,0x6D,0x00,0xB8,0x0B,0x5B,0x0A,0xB1,0x0B,0x71,0x05,
  0xB2,0x0B,0x59,0x05,0xB8,0x0B,0x60,0x0F,0xB2,0x0B,0x5A,0x05,0xB8,0x0B,0x67,0x14,
  0xB8,0x0B,0x6E,0x05,0xB8,0x0B,0x70,0x0A,0xB2,0x0B,0x5B,0x14,0xB2,0x0B,0x5C,0x14,
  0xB2,0x0B,0x5D,0x14,0xB2,0x0B,0x5E,0x14,0xB2,0x0B,0x5F,0x14,0xB2,0x0B,0x60,0x05,
  0x83,0x41,0x40,0x00,0x93,0x43,0x65,0x0F,0xB2,0x0B,0x61,0x14,0xB2,0x0B,0x62,0x0F,
  0xB2,0x0B,0x63,0x81,0x11,0xB1,0x0B,0x55,0x22,0x81,0x54,0x40,0x00,0x88,0x54,0x40,
  0x06,0xB1,0x0B,0x57,0x05,0x83,0x43,0x40,0x00,0x86,0x34,0x40,0x00,0x86,0x48,0x40,
  0x00,0x86,0x45,0x40,0x00,0x86,0x41,0x40,0x00,0x91,0x54,0x73,0x00,0x93,0x41,0x62,
  0x00,0x96,0x32,0x69,0x00,0x96,0x48,0x71,0x00,0x96,0x45,0x6E,0x00,0x96,0x41,0x62,
  0x00,0x98,0x54,0x71,0x05,0xB8,0x0B,0x4F,0x0A,0xB1,0x0B,0x59,0x14,0xB1,0x0B,0x5D,
  0x0A,0xB8,0x0B,0x52,0x0A,0xB1,0x0B,0x62,0x0A,0xB8,0x0B,0x57,0x0A,0xB1,0x0B,0x68,
  0x0A,0xB8,0x0B,0x5E,0x0A,0xB1,0x0B,0x70,0x0A,0xB8,0x0B,0x66,0x0F,0xB8,0x0B,0x6D,
  0x78,0x83,0x41,0x40,0x00,0x93,0x3C,0x64,0x81,0x39,0xB1,0x0B,0x62,0x19,0xB8,0x0B,
  0x57,0x0A,0x81,0x54,0x40,0x00,0x88,0x54,0x40,0x14,0x83,0x3C,0x40,0x00,0x86,0x32,
  0x40,0x00,0x86,0x48,0x40,0x00,0x86,0x45,0x40,0x00,0x86,0x41,0x40,0x00,0x87,0x29,
  0x40,0x00,0x91,0x4D,0x71,0x00,0x93,0x41,0x69,0x00,0x96,0x30,0x65,0x00,0x96,0x3C,
  0x6E,0x00,0x96,0x45,0x66,0x00,0x96,0x41,0x6E,0x00,0x97,0x24,0x6E,0x00,0x98,0x4D,
  0x73,0x0A,0xB8,0x0B,0x58,0x0F,0xB1,0x0B,0x63,0x05,0xB8,0x0B,0x59,0x0F,0xB1,0x0B,
  0x64,0x05,0xB8,0x0B,0x5C,0x0F,0xB1,0x0B,0x65,0x05,0xB8,0x0B,0x5E,0x0F,0xB1,0x0B,
  0x67,0x05,0xB8,0x0B,0x62,0x0F,0xB1,0x0B,0x68,0x05,0xB8,0x0B,0x66,0x0F,0xB1,0x0B,
  0x6A,0x00,0xB8,0x0B,0x6A,0x14,0xB1,0x0B,0x6C,0x0A,0xB1,0x0B,0x6E,0x55,0x83,0x41,
  0x40,0x00,0x93,0x43,0x64,0x81,0x34,0xB2,0x0B,0x62,0x3C,0x83,0x43,0x40,0x00,0x93,
  0x45,0x62,0x78,0x86,0x30,0x40,0x00,0x86,0x3C,0x40,0x00,0x86,0x45,0x40,0x00,0x86,
  0x41,0x40,0x14,0xB2,0x0B,0x61,0x50,0xB2,0x0B,0x60,0x06,0x87,0x24,0x40,0x0E,0x81,
  0x4D,0x40,0x00,0x83,0x45,0x40,0x00,0x88,0x4D,0x40,0x00,0x91,0x4F,0x73,0x00,0x93,
  0x46,0x66,0x00,0x96,0x32,0x6E,0x00,0x96,0x3C,0x6E,0x00,0x96,0x45,0x5F,0x00,0x96,
  0x41,0x62,0x00,0x97,0x26,0x70,0x00,0x98,0x4F,0x6E,0x28,0xB2,0x0B,0x5F,0x3C,0xB2,
  0x0B,0x5E,0x28,0xB2,0x0B,0x5D,0x28,0xB2,0x0B,0x5C,0x24,0x81,0x4F,0x40,0x00,0x88,
  0x4F,0x40,0x04,0xB2,0x0B,0x5B,0x10,0x87,0x26,0x40,0x04,0x83,0x46,0x40,0x00,0x86,
  0x32,0x40,0x00,0x86,0x3C,0x40,0x00,0x86,0x45,0x40,0x00,0x86,0x41,0x40,0x00,0x91,
  0x51,0x71,0x00,0x93,0x45,0x64,0x00,0x96,0x35,0x65,0x00,0x96,0x3C,0x63,0x00,0x96,
  0x45,0x69,0x00,0x96,0x41,0x66,0x00,0x97,0x28,0x69,0x00,0x98,0x51,0x6E,0x14,0xB2,
  0x0B,0x5A,0x28,0xB2,0x0B,0x59,0x14,0xB2,0x0B,0x58,0x28,0xB2,0x0B,0x57,0x14,0xB2,
  0x0B,0x56,0x28,0xB2,0x0B,0x55,0x14,0xB2,0x0B,0x54,0x14,0xB2,0x0B,0x53,0x0A,0xB1,
  0x0B,0x6E,0x0A,0x83,0x45,0x40,0x00,0x93,0x43,0x6E,0x14,0xB2,0x0B,0x52,0x14,0xB2,
  0x0B,0x51,0x0A,0xB1,0x0B,0x6D,0x0A,0xB2,0x0B,0x50,0x0A,0xB1,0x0B,0x6C,0x0A,0xB2,
  0x0B,0x4F,0x0A,0xB1,0x0B,0x6B,0x0A,0xB2,0x0B,0x4E,0x0A,0xB1,0x0B,0x6A,0x0A,0xB2,
  0x0B,0x4D,0x0A,0xB1,0x0B,0x68,0x0A,0xB2,0x0B,0x4C,0x0A,0xB1,0x0B,0x66,0x05,0xB1,
  0x0B,0x65,0x05,0xB2,0x0B,0x4B,0x14,0xB2,0x0B,0x4A,0x0C,0x81,0x51,0x40,0x00,0x88,
  0x51,0x40,0x0D,0xB1,0x0B,0x65,0x1A,0x87,0x28,0x40,0x09,0x82,0x51,0x40,0x00,0x82,
  0x4D,0x40,0x00,0x82,0x54,0x40,0x00,0x83,0x43,0x40,0x00,0x85,0x48,0x40,0x00,0x85,
  0x45,0x40,0x00,0x85,0x41,0x40,0x00,0x86,0x35,0x40,0x00,0x86,0x3C,0x40,0x00,0x86,
  0x45,0x40,0x00,0x86,0x41,0x40,0x00,0x91,0x52,0x7B,0x00,0xB2,0x0B,0x4B,0x00,0x92,
  0x52,0x58,0x00,0x92,0x4D,0x58,0x00,0x92,0x4A,0x58,0x00,0x93,0x40,0x69,0x00,0x95,
  0x41,0x6E,0x00,0x95,0x3E,0x6E,0x00,0x95,0x46,0x6E,0x00,0x96,0x3A,0x63,0x00,0x96,
  0x3E,0x64,0x00,0x96,0x41,0x6E,0x00,0x96,0x46,0x71,0x00,0x97,0x22,0x6F,0x00,0x98,
  0x52,0x7A,0x19,0xB1,0x0B,0x66,0x14,0xB1,0x0B,0x67,0x14,0xB1,0x0B,0x68,0x14,0xB1,
  0x0B,0x6A,0x0F,0xB2,0x0B,0x4C,0x05,0xB1,0x0B,0x6C,0x05,0xB1,0x0B,0x6D,0x1E,0xB2,
  0x0B,0x4D,0x14,0xB2,0x0B,0x4E,0x14,0xB2,0x0B,0x4F,0x14,0xB2,0x0B,0x50,0x14,0xB2,
  0x0B,0x51,0x14,0x83,0x40,0x40,0x00,0xB2,0x0B,0x52,0x00,0x93,0x41,0x69,0x14,0xB2,
  0x0B,0x53,0x14,0xB2,0x0B,0x55,0x14,0xB2,0x0B,0x56,0x14,0xB2,0x0B,0x58,0x05,0xB2,
  0x0B,0x59,0x6B,0x81,0x52,0x40,0x00,0x88,0x52,0x40,0x27,0x87,0x22,0x40,0x09,0x83,
  0x41,0x40,0x00,0x91,0x52,0x78,0x00,0x93,0x43,0x68,0x00,0x97,0x24,0x6E,0x00,0x98,
  0x52,0x6E,0x81,0x70,0x83,0x43,0x40,0x00,0x93,0x45,0x64,0x81,0x02,0xB2,0x0B,0x57,
  0x28,0xB2,0x0B,0x56,0x14,0xB2,0x0B,0x53,0x02,0x81,0x52,0x40,0x00,0x88,0x52,0x40,
  0x12,0xB2,0x0B,0x50,0x14,0xB2,0x0B,0x4C,0x01,0x87,0x24,0x40,0x09,0x82,0x52,0x40,
  0x00,0x82,0x4D,0x40,0x00,0x82,0x4A,0x40,0x00,0x83,0x45,0x40,0x00,0x85,0x41,0x40,
  0x00,0x85,0x3E,0x40,0x00,0x85,0x46,0x40,0x00,0x86,0x3A,0x40,0x00,0x86,0x3E,0x40,
  0x00,0x86,0x41,0x40,0x00,0x86,0x46,0x40,0x00,0x91,0x4F,0x73,0x00,0x92,0x4F,0x58,
  0x00,0x92,0x4C,0x58,0x00,0x92,0x48,0x58,0x00,0x93,0x46,0x63,0x00,0x95,0x48,0x6E,
  0x00,0x95,0x43,0x6E,0x00,0x95,0x40,0x6E,0x00,0x96,0x37,0x67,0x00,0x96,0x43,0x6E,
  0x00,0x96,0x41,0x66,0x00,0x96,0x3E,0x69,0x00,0x97,0x28,0x73,0x00,0x98,0x4F,0x6E,
  0x23,0xB2,0x0B,0x4C,0x3C,0xB2,0x0B,0x4D,0x14,0xB2,0x0B,0x4F,0x14,0xB2,0x0B,0x51,
  0x14,0xB2,0x0B,0x53,0x0F,0xB2,0x0B,0x56,0x46,0x83,0x46,0x40,0x00,0x93,0x45,0x66,
  0x81,0x20,0xB8,0x0B,0x69,0x20,0x81,0x4F,0x40,0x00,0x88,0x4F,0x40,0x27,0x87,0x28,
  0x40,0x09,0x82,0x4F,0x40,0x00,0x82,0x4C,0x40,0x00,0x82,0x48,0x40,0x00,0x83,0x45,
  0x40,0x00,0x85,0x48,0x40,0x00,0x85,0x43,0x40,0x00,0x85,0x40,0x40,0x00,0x86,0x37,
  0x40,0x00,0x86,0x43,0x40,0x00,0x86,0x41,0x40,0x00,0x86,0x3E,0x40,0x00,0x91,0x4D,
  0x73,0x00,0x92,0x54,0x58,0x00,0x92,0x51,0x58,0x00,0x92,0x4D,0x58,0x00,0x93,0x39,
  0x78,0x00,0x95,0x48,0x6E,0x00,0x95,0x45,0x6E,0x00,0x95,0x41,0x6E,0x00,0x96,0x3C,
  0x6E,0x00,0x96,0x35,0x6F,0x00,0x97,0x29,0x73,0x00,0x98,0x4D,0x73,0x0A,0xB1,0x0B,
  0x6B,0x1E,0xB8,0x0B,0x6A,0x0A,0x93,0x3A,0x73,0x1E,0xB8,0x0B,0x6B,0x14,0x93,0x3C,
  0x6E,0x14,0xB8,0x0B,0x6C,0x14,0xB8,0x0B,0x6D,0x0A,0x93,0x3E,0x6E,0x0A,0xB8,0x0B,
  0x6E,0x0A,0xB1,0x0B,0x6C,0x0A,0xB8,0x0B,0x6F,0x14,0x93,0x40,0x69,0x0A,0xB2,0x0B,
  0x57,0x0A,0xB8,0x0B,0x71,0x0A,0xB1,0x0B,0x6D,0x0A,0x86,0x3C,0x40,0x00,0x96,0x41,
  0x69,0x00,0xB8,0x0B,0x72,0x0A,0x93,0x41,0x66,0x05,0xB8,0x0B,0x73,0x0F,0xB1,0x0B,
  0x6E,0x1E,0x93,0x43,0x64,0x0A,0xB1,0x0B,0x6F,0x14,0xB2,0x0B,0x58,0x14,0xB1,0x0B,
  0x70,0x00,0x93,0x45,0x64,0x28,0xB1,0x0B,0x71,0x00,0xB2,0x0B,0x59,0x0A,0x93,0x46,
  0x64,0x0A,0xB1,0x0B,0x72,0x14,0xB1,0x0B,0x73,0x00,0xB2,0x0B,0x5A,0x14,0xB2,0x0B,
  0x5B,0x00,0x93,0x41,0x73,0x14,0xB1,0x0B,0x74,0x05,0xB1,0x0B,0x75,0x05,0x86,0x41,
  0x40,0x00,0x96,0x45,0x67,0x0A,0xB2,0x0B,0x5C,0x14,0xB2,0x0B,0x5D,0x14,0xB2,0x0B,
  0x5E,0x00,0x93,0x45,0x70,0x14,0xB2,0x0B,0x5F,0x14,0xB2,0x0B,0x60,0x0A,0x93,0x43,
  0x70,0x0A,0xB2,0x0B,0x61,0x14,0xB2,0x0B,0x62,0x14,0x93,0x43,0x6E,0x32,0x93,0x45,
  0x6C,0x28,0x86,0x45,0x40,0x00,0x96,0x48,0x72,0x0A,0x93,0x48,0x6C,0x32,0x93,0x4A,
  0x68,0x2D,0xB1,0x0B,0x74,0x05,0x93,0x4C,0x68,0x32,0x93,0x4D,0x66,0x2D,0xB1,0x0B,
  0x73,0x14,0xB1,0x0B,0x72,0x0F,0x86,0x48,0x40,0x00,0x96,0x4D,0x6E,0x19,0xB1,0x0B,
  0x71,0x14,0xB1,0x0B,0x70,0x14,0xB1,0x0B,0x6F,0x14,0xB1,0x0B,0x6D,0x14,0xB1,0x0B,
  0x6C,0x14,0xB1,0x0B,0x6A,0x14,0xB1,0x0B,0x69,0x05,0xB8,0x0B,0x71,0x0F,0xB1,0x0B,
  0x67,0x14,0xB1,0x0B,0x65,0x14,0xB1,0x0B,0x63,0x05,0xB2,0x0B,0x61,0x0F,0xB1,0x0B,
  0x61,0x05,0xB8,0x0B,0x70,0x0F,0xB1,0x0B,0x5F,0x05,0xB8,0x0B,0x6F,0x0F,0xB1,0x0B,
  0x5D,0x14,0xB1,0x0B,0x5A,0x05,0xB2,0x0B,0x60,0x00,0xB8,0x0B,0x6E,0x0F,0xB1,0x0B,
  0x58,0x05,0xB8,0x0B,0x6C,0x02,0xB0,0x01,0x00,0x0D,0xB1,0x0B,0x55,0x05,0xB2,0x0B,
  0x5F,0x00,0xB8,0x0B,0x6B,0x0F,0xB1,0x0B,0x52,0x05,0xB2,0x0B,0x5E,0x00,0xB8,0x0B,
  0x69,0x0F,0xB1,0x0B,0x4F,0x05,0xB2,0x0B,0x5D,0x00,0xB8,0x0B,0x68,0x0F,0xB1,0x0B,
  0x4C,0x05,0xB2,0x0B,0x5C,0x00,0xB8,0x0B,0x66,0x00,0xFF,0x20,0x01,0x0C,0x00,0xF0,
  0x2A,0x43,0x79,0x09,0x00,0x50,0x10,0x4D,0x2C,0x73,0x20,0x61,0x2C,0x67,0x27,0x20,
  0x69,0x2C,0x6F,0x2C,0x69,0x2C,0x53,0x20,0x69,0x2C,0x6B,0x20,0x61,0x2C,0x6E,0x20,
  0x6F,0x2C,0x6A,0x20,0x61,0x2C,0x6D,0x20,0x61,0x00,0xF7,0x09,0xFF,0x20,0x01,0x00,
  0x00,0xF0,0x09,0x43,0x10,0x4C,0x02,0x01,0x42,0x00,0x40,0xF7,0x01,0xB0,0x0B,0x5E,
  0x00,0x90,0x41,0x70,0x05,0xB1,0x0B,0x49,0x05,0xB2,0x0B,0x5B,0x00,0xB8,0x0B,0x64,
  0x0F,0xB1,0x0B,0x46,0x05,0xB2,0x0B,0x59,0x00,0xB8,0x0B,0x62,0x0A,0xB0,0x0B,0x5F,
  0x05,0xB1,0x0B,0x42,0x05,0xB2,0x0B,0x58,0x00,0xB8,0x0B,0x5F,0x02,0x87,0x29,0x40,
  0x08,0xB0,0x0B,0x61,0x05,0xB1,0x0B,0x3F,0x05,0xB2,0x0B,0x56,0x00,0xB8,0x0B,0x5D,
  0x0A,0x85,0x48,0x40,0x00,0x85,0x45,0x40,0x00,0x85,0x41,0x40,0x00,0x86,0x4D,0x40,
  0x00,0x86,0x35,0x40,0x00,0xB0,0x0B,0x63,0x00,0x95,0x48,0x58,0x00,0x95,0x45,0x58,
  0x00,0x95,0x41,0x58,0x00,0x96,0x41,0x69,0x00,0x96,0x35,0x64,0x00,0x97,0x29,0x6E,
  0x05,0xB1,0x0B,0x3B,0x05,0xB2,0x0B,0x54,0x00,0xB8,0x0B,0x5A,0x0A,0xB0,0x0B,0x66,
  0x05,0xB1,0x0B,0x37,0x05,0xB2,0x0B,0x52,0x00,0xB8,0x0B,0x58,0x0A,0xB0,0x0B,0x6A,
  0x05,0xB1,0x0B,0x34,0x05,0xB2,0x0B,0x50,0x00,0xB8,0x0B,0x55,0x0A,0xB0,0x0B,0x6F,
  0x05,0xB1,0x0B,0x30,0x05,0xB2,0x0B,0x4E,0x00,0xB8,0x0B,0x51,0x0F,0xB1,0x0B,0x2B,
  0x05,0xB2,0x0B,0x4C,0x00,0xB8,0x0B,0x4E,0x14,0xB2,0x0B,0x49,0x00,0xB8,0x0B,0x4B,
  0x14,0xB2,0x0B,0x47,0x00,0xB8,0x0B,0x47,0x14,0xB2,0x0B,0x44,0x00,0xB8,0x0B,0x43,
  0x14,0xB2,0x0B,0x41,0x00,0xB8,0x0B,0x3F,0x14,0xB2,0x0B,0x3E,0x00,0xB8,0x0B,0x3B,
  0x14,0xB2,0x0B,0x3B,0x00,0xB8,0x0B,0x37,0x14,0xB2,0x0B,0x38,0x00,0xB8,0x0B,0x33,
  0x0A,0x86,0x41,0x40,0x00,0x96,0x45,0x63,0x0A,0xB2,0x0B,0x34,0x00,0xB8,0x0B,0x2E,
  0x0F,0xB8,0x0B,0x2A,0x05,0xB2,0x0B,0x31,0x14,0xB2,0x0B,0x2D,0x14,0xB2,0x0B,0x29,
  0x0A,0x80,0x41,0x40,0x0A,0xB2,0x0B,0x25,0x14,0xB2,0x0B,0x21,0x05,0xB0,0x0B,0x59,
  0x05,0x81,0x4D,0x40,0x00,0x88,0x4D,0x40,0x00,0x90,0x41,0x6E,0x0A,0xB2,0x0B,0x1D,
  0x14,0xB2,0x0B,0x19,0x14,0xB2,0x0B,0x14,0x05,0xB0,0x0B,0x5A,0x0F,0xB2,0x0B,0x0F,
  0x05,0xB0,0x0B,0x5B,0x14,0xB0,0x0B,0x5D,0x14,0xB0,0x0B,0x5F,0x05,0x82,0x54,0x40,
  0x00,0x82,0x51,0x40,0x00,0x82,0x4D,0x40,0x00,0x86,0x45,0x40,0x00,0x96,0x48,0x5F,
  0x0F,0xB0,0x0B,0x61,0x14,0xB0,0x0B,0x64,0x14,0xB0,0x0B,0x66,0x14,0xB0,0x0B,0x6A,
  0x0A,0xB0,0x0B,0x6C,0x81,0x1B,0x86,0x48,0x40,0x00,0x96,0x45,0x6E,0x81,0x07,0xB0,
  0x0B,0x56,0x0F,0x80,0x41,0x40,0x0A,0x90,0x41,0x6C,0x0F,0xB0,0x0B,0x57,0x14,0xB0,
  0x0B,0x58,0x14,0xB0,0x0B,0x5A,0x14,0xB0,0x0B,0x5C,0x05,0x86,0x45,0x40,0x00,0x83,
  0x39,0x40,0x00,0x96,0x48,0x69,0x0F,0xB0,0x0B,0x5F,0x14,0xB0,0x0B,0x62,0x0F,0x83,
  0x3A,0x40,0x05,0xB0,0x0B,0x66,0x0A,0xB0,0x0B,0x69,0x23,0x83,0x3C,0x40,0x32,0x83,
  0x3E,0x40,0x32,0x83,0x40,0x40,0x28,0x86,0x48,0x40,0x00,0x96,0x45,0x6E,0x0A,0x83,
  0x41,0x40,0x32,0x83,0x43,0x40,0x32,0x83,0x45,0x40,0x28,0xB0,0x0B,0x57,0x09,0xFF,
  0x20,0x01,0x00,0x00,0xF0,0x09,0x43,0x10,0x4C,0x02,0x01,0x42,0x00,0x3D,0xF7,0x01,
  0x80,0x41,0x40,0x00,0x83,0x46,0x40,0x00,0x90,0x43,0x64,0x32,0x83,0x41,0x40,0x02,
  0x87,0x29,0x40,0x12,0xB0,0x0B,0x58,0x0A,0x86,0x45,0x40,0x00,0x85,0x48,0x40,0x00,
  0x85,0x45,0x40,0x00,0x85,0x41,0x40,0x00,0x86,0x35,0x40,0x00,0x95,0x43,0x58,0x00,
  0x95,0x40,0x58,0x00,0x95,0x3C,0x58,0x00,0x96,0x40,0x64,0x00,0x96,0x30,0x70,0x00,
  0x97,0x24,0x74,0x0A,0xB0,0x0B,0x59,0x14,0xB0,0x0B,0x5A,0x14,0x83,0x45,0x40,0x00,
  0xB0,0x0B,0x5B,0x14,0xB0,0x0B,0x5D,0x14,0xB0,0x0B,0x5E,0x0A,0x83,0x43,0x40,0x0A,
  0xB0,0x0B,0x60,0x14,0xB0,0x0B,0x62,0x14,0x83,0x43,0x40,0x00,0xB0,0x0B,0x64,0x14,
  0xB0,0x0B,0x67,0x1E,0x83,0x45,0x40,0x05,0xB0,0x01,0x00,0x23,0x86,0x40,0x40,0x00,
  0x96,0x43,0x6E,0x0A,0x83,0x48,0x40,0x0F,0xB0,0x01,0x01,0x23,0x83,0x4A,0x40,0x05,
  0xB0,0x01,0x02,0x14,0xB0,0x01,0x04,0x14,0xB0,0x01,0x05,0x05,0x83,0x4C,0x40,0x0F,
  0xB0,0x01,0x07,0x14,0xB0,0x01,0x09,0x0F,0x83,0x4D,0x40,0x05,0xB0,0x01,0x0B,0x14,
  0xB0,0x01,0x0E,0x14,0xB0,0x01,0x10,0x23,0x86,0x43,0x40,0x00,0x96,0x48,0x63,0x78,
  0xB0,0x01,0x00,0x09,0xFF,0x20,0x01,0x00,0x00,0xF0,0x09,0x43,0x10,0x4C,0x02,0x01,
  0x42,0x00,0x39,0xF7,0x01,0x90,0x45,0x70,0x0A,0x80,0x43,0x40,0x56,0x87,0x24,0x40,
  0x0E,0x86,0x48,0x40,0x00,0x96,0x43,0x58,0x00,0x97,0x28,0x63,0x81,0x0C,0x80,0x45,
  0x40,0x00,0x90,0x43,0x6E,0x1E,0xB0,0x0B,0x5C,0x3C,0xB0,0x0B,0x5D,0x06,0x87,0x28,
  0x40,0x04,0x86,0x43,0x40,0x00,0x96,0x48,0x6E,0x00,0x97,0x24,0x69,0x0A,0xB0,0x0B,
  0x5E,0x05,0xB0,0x01,0x00,0x0F,0xB0,0x0B,0x60,0x14,0xB0,0x0B,0x62,0x14,0xB0,0x0B,
  0x64,0x14,0xB0,0x0B,0x66,0x05,0xB0,0x01,0x01,0x0F,0xB0,0x0B,0x69,0x0F,0xB0,0x0B,
  0x6C,0x0A,0xB0,0x01,0x02,0x14,0xB0,0x01,0x03,0x14,0xB0,0x01,0x05,0x14,0xB0,0x01,
  0x06,0x05,0xB0,0x0B,0x69,0x0F,0xB0,0x01,0x07,0x14,0xB0,0x01,0x09,0x05,0x86,0x48,
  0x40,0x00,0x96,0x43,0x69,0x0F,0xB0,0x01,0x0B,0x05,0xB0,0x0B,0x68,0x0F,0xB0,0x01,
  0x0D,0x05,0xB0,0x0B,0x66,0x0F,0xB0,0x01,0x0F,0x05,0xB0,0x01,0x10,0x00,0xB0,0x0B,
  0x65,0x14,0xB0,0x01,0x13,0x00,0xB0,0x0B,0x62,0x14,0xB0,0x01,0x14,0x00,0xB0,0x0B,
  0x60,0x0A,0xB0,0x0B,0x5E,0x0A,0x80,0x43,0x40,0x00,0xB0,0x01,0x18,0x19,0xB0,0x01,
  0x00,0x22,0xFF,0x20,0x01,0x00,0x00,0xF0,0x09,0x43,0x10,0x4C,0x02,0x01,0x42,0x00,
  0x3C,0xF7,0x01,0x90,0x45,0x71,0x19,0xB0,0x0B,0x61,0x1A,0x87,0x24,0x40,0x09,0x86,
  0x43,0x40,0x00,0x85,0x43,0x40,0x00,0x85,0x40,0x40,0x00,0x85,0x3C,0x40,0x00,0x86,
  0x30,0x40,0x00,0x95,0x45,0x58,0x00,0x95,0x48,0x58,0x00,0x95,0x40,0x58,0x00,0x96,
  0x40,0x66,0x00,0x96,0x39,0x6E,0x00,0x97,0x29,0x73,0x05,0xB0,0x0B,0x63,0x14,0xB0,
  0x0B,0x67,0x14,0xB0,0x0B,0x6C,0x0F,0xB0,0x0B,0x71,0x81,0x34,0x86,0x40,0x40,0x00,
  0x96,0x45,0x6E,0x81,0x02,0x90,0x45,0x6E,0x6E,0x86,0x45,0x40,0x00,0x86,0x39,0x40,
  0x00,0x96,0x48,0x63,0x00,0x96,0x39,0x6E,0x81,0x70,0x86,0x48,0x40,0x00,0x96,0x45,
  0x5F,0x77,0xFF,0x20,0x01,0x00,0x00,0xF0,0x09,0x43,0x10,0x4C,0x02,0x01,0x42,0x00,
  0x3B,0xF7,0x01,0x80,0x45,0x40,0x00,0x80,0x45,0x40,0x00,0x90,0x46,0x72,0x41,0xB0,
  0x0B,0x63,0x14,0xB0,0x0B,0x64,0x14,0xB0,0x0B,0x66,0x0F,0x85,0x45,0x40,0x00,0x86,
  0x45,0x40,0x00,0x86,0x39,0x40,0x00,0x87,0x29,0x40,0x00,0x95,0x46,0x58,0x00,0x96,
  0x46,0x64,0x00,0x96,0x3A,0x69,0x00,0x97,0x2E,0x76,0x05,0xB0,0x0B,0x68,0x14,0xB0,
  0x0B,0x6A,0x14,0xB0,0x0B,0x6D,0x0F,0xB0,0x0B,0x70,0x81,0x25,0xB0,0x0B,0x6E,0x0F,
  0x86,0x46,0x40,0x00,0x96,0x48,0x66,0x2D,0xB0,0x0B,0x6C,0x14,0xB0,0x0B,0x6B,0x14,
  0xB0,0x0B,0x69,0x14,0xB0,0x0B,0x66,0x14,0xB0,0x0B,0x63,0x05,0xB0,0x0B,0x62,0x13,
  0xFF,0x20,0x01,0x00,0x00,0xF0,0x09,0x43,0x10,0x4C,0x02,0x01,0x42,0x00,0x3D,0xF7,
  0x01,0x90,0x48,0x76,0x14,0xB0,0x0B,0x63,0x14,0xB0,0x0B,0x64,0x14,0xB0,0x0B,0x65,
  0x14,0x80,0x46,0x40,0x00,0xB0,0x0B,0x66,0x01,0x87,0x2E,0x40,0x09,0x85,0x46,0x40,
  0x00,0x85,0x48,0x40,0x00,0x85,0x40,0x40,0x00,0x86,0x48,0x40,0x00,0x86,0x3A,0x40,
  0x00,0x95,0x40,0x58,0x00,0x95,0x45,0x58,0x00,0x95,0x48,0x58,0x00,0x96,0x4D,0x69,
  0x00,0x96,0x35,0x66,0x00,0x97,0x29,0x70,0x0A,0xB0,0x0B,0x68,0x14,0xB0,0x0B,0x6A,
  0x14,0xB0,0x0B,0x6C,0x14,0xB0,0x0B,0x6E,0x14,0xB0,0x0B,0x71,0x14,0xB0,0x0B,0x74,
  0x05,0xB0,0x0B,0x75,0x7D,0x86,0x4D,0x40,0x00,0x96,0x48,0x6E,0x1E,0xB0,0x01,0x00,
  0x64,0xB0,0x01,0x01,0x14,0xB0,0x01,0x02,0x28,0xB0,0x01,0x03,0x14,0xB0,0x01,0x04,
  0x14,0xB0,0x01,0x05,0x01,0x87,0x29,0x40,0x09,0x86,0x48,0x40,0x00,0x96,0x45,0x67,
  0x00,0x97,0x2B,0x6E,0x0A,0xB0,0x01,0x07,0x14,0xB0,0x01,0x08,0x14,0xB0,0x01,0x09,
  0x14,0xB0,0x01,0x0B,0x05,0xB0,0x0B,0x74,0x0F,0xB0,0x01,0x0D,0x14,0xB0,0x01,0x0E,
  0x14,0xB0,0x01,0x10,0x05,0xB0,0x0B,0x73,0x0F,0xB0,0x01,0x12,0x05,0xB0,0x0B,0x72,
  0x0F,0xB0,0x01,0x14,0x05,0xB0,0x0B,0x71,0x0F,0xB0,0x01,0x17,0x05,0xB0,0x0B,0x70,
  0x0A,0xB0,0x01,0x18,0x0A,0xB0,0x0B,0x6E,0x14,0xB0,0x0B,0x6C,0x05,0x86,0x45,0x40,
  0x00,0x96,0x41,0x66,0x0F,0xB0,0x0B,0x6A,0x14,0xB0,0x0B,0x67,0x14,0xB0,0x0B,0x64,
  0x14,0xB0,0x0B,0x61,0x14,0xB0,0x0B,0x5E,0x14,0xB0,0x0B,0x5A,0x14,0xB0,0x0B,0x56,
  0x14,0xB0,0x0B,0x52,0x14,0xB0,0x0B,0x4D,0x14,0xB0,0x0B,0x49,0x14,0xB0,0x0B,0x44,
  0x10,0x87,0x2B,0x40,0x04,0xB0,0x0B,0x3E,0x05,0x86,0x41,0x40,0x00,0x80,0x48,0x40,
  0x00,0x96,0x45,0x65,0x00,0x97,0x2D,0x6E,0x81,0x70,0x86,0x45,0x40,0x00,0x96,0x48,
  0x63,0x60,0xB0,0x01,0x00,0x36,0xFF,0x20,0x01,0x0C,0x00,0xF0,0x31,0x43,0x79,0x09,
  0x00,0x50,0x10,0x6B,0x20,0x6F,0x2C,0x62,0x20,0x4D,0x2C,0x6E,0x20,0x61,0x2C,0x74,
  0x73,0x20,0x4D,0x2C,0x34,0x27,0x20,0x69,0x2C,0x53,0x20,0x69,0x2C,0x6B,0x20,0x61,
  0x2C,0x6E,0x20,0x6F,0x2C,0x6B,0x20,0x61,0x2C,0x77,0x20,0x61,0x00,0xF7,0x19,0xB0,
  0x0B,0x64,0x04,0xFF,0x20,0x01,0x00,0x00,0xF0,0x09,0x43,0x10,0x4C,0x02,0x01,0x42,
  0x00,0x3B,0xF7,0x01,0x90,0x46,0x6C,0x23,0xB0,0x0B,0x65,0x10,0x87,0x2D,0x40,0x04,
  0xB0,0x0B,0x66,0x05,0x85,0x40,0x40,0x00,0x85,0x45,0x40,0x00,0x85,0x48,0x40,0x00,
  0x86,0x48,0x40,0x00,0x86,0x35,0x40,0x00,0x95,0x3E,0x58,0x00,0x95,0x41,0x58,0x00,
  0x95,0x46,0x58,0x00,0x96,0x4D,0x62,0x00,0x96,0x3A,0x66,0x00,0x97,0x2E,0x76,0x00,
  0x9A,0x46,0x6C,0x00,0x9A,0x41,0x5F,0x0F,0xB0,0x0B,0x68,0x14,0xB0,0x0B,0x6A,0x14,
  0xB0,0x0B,0x6D,0x0F,0xB0,0x0B,0x70,0x81,0x2A,0x86,0x4D,0x40,0x00,0x96,0x4A,0x67,
  0x81,0x04,0x80,0x46,0x40,0x26,0x90,0x48,0x6E,0x2E,0x8A,0x46,0x40,0x00,0x8A,0x41,
  0x40,0x18,0x86,0x4A,0x40,0x00,0x87,0x2E,0x40,0x00,0x96,0x46,0x69,0x00,0x97,0x32,
  0x76,0x00,0x9A,0x48,0x6E,0x00,0x9A,0x41,0x62,0x81,0x70,0x86,0x46,0x40,0x00,0x96,
  0x4A,0x6E,0x66,0x80,0x48,0x40,0x11,0xFF,0x20,0x01,0x00,0x00,0xF0,0x09,0x43,0x10,
  0x4C,0x02,0x01,0x42,0x00,0x3C,0xF7,0x01,0x90,0x4A,0x77,0x60,0x8A,0x48,0x40,0x00,
  0x8A,0x41,0x40,0x18,0x86,0x4A,0x40,0x00,0x87,0x32,0x40,0x00,0x96,0x46,0x66,0x00,
  0x97,0x2E,0x76,0x00,0x9A,0x4A,0x6D,0x00,0x9A,0x41,0x63,0x81,0x70,0x86,0x46,0x40,
  0x00,0x96,0x41,0x67,0x78,0x80,0x4A,0x40,0x3C,0x90,0x45,0x69,0x23,0xB0,0x0B,0x63,
  0x01,0x8A,0x4A,0x40,0x00,0x8A,0x41,0x40,0x18,0x85,0x3E,0x40,0x00,0x85,0x41,0x40,
  0x00,0x85,0x46,0x40,0x00,0x86,0x41,0x40,0x00,0x86,0x3A,0x40,0x00,0x87,0x2E,0x40,
  0x00,0x95,0x48,0x58,0x00,0x95,0x45,0x58,0x00,0x95,0x40,0x58,0x00,0x96,0x4D,0x63,
  0x00,0x96,0x35,0x6E,0x00,0x97,0x29,0x73,0x32,0xB0,0x01,0x00,0x05,0xB0,0x0B,0x64,
  0x28,0xB0,0x0B,0x65,0x14,0xB0,0x0B,0x66,0x0F,0xB0,0x01,0x01,0x05,0xB0,0x0B,0x67,
  0x14,0xB0,0x0B,0x68,0x0F,0xB0,0x01,0x02,0x05,0xB0,0x0B,0x69,0x0F,0xB0,0x01,0x03,
  0x05,0xB0,0x0B,0x6B,0x0F,0xB0,0x01,0x04,0x05,0xB0,0x0B,0x6D,0x0F,0xB0,0x01,0x05,
  0x0A,0x86,0x4D,0x40,0x00,0x96,0x48,0x5F,0x0A,0xB0,0x01,0x06,0x14,0xB0,0x01,0x07,
  0x14,0xB0,0x01,0x09,0x14,0xB0,0x0B,0x6C,0x00,0xB0,0x01,0x0A,0x14,0xB0,0x01,0x0C,
  0x14,0xB0,0x01,0x0E,0x14,0xB0,0x01,0x10,0x14,0xB0,0x01,0x12,0x14,0xB0,0x0B,0x6B,
  0x00,0xB0,0x01,0x14,0x0A,0xB0,0x01,0x16,0x0A,0xB0,0x0B,0x6A,0x28,0xB0,0x0B,0x69,
  0x0A,0x86,0x48,0x40,0x00,0x96,0x45,0x64,0x0A,0xB0,0x0B,0x68,0x14,0xB0,0x0B,0x67,
  0x14,0xB0,0x0B,0x65,0x14,0xB0,0x0B,0x64,0x14,0xB0,0x0B,0x63,0x14,0xB0,0x0B,0x61,
  0x05,0xB0,0x0B,0x60,0x15,0xB0,0x01,0x00,0x17,0xFF,0x20,0x01,0x00,0x00,0xF0,0x09,
  0x43,0x10,0x4C,0x02,0x01,0x42,0x00,0x3D,0xF7,0x01,0x90,0x46,0x73,0x14,0x80,0x45,
  0x40,0x3C,0x86,0x45,0x40,0x00,0x87,0x29,0x40,0x00,0x96,0x48,0x67,0x00,0x97,0x2D,
  0x6E,0x81,0x20,0x80,0x46,0x40,0x13,0xFF,0x20,0x01,0x00,0x00,0xF0,0x09,0x43,0x10,
  0x4C,0x02,0x01,0x42,0x00,0x3C,0xF7,0x01,0x90,0x45,0x66,0x3C,0x86,0x48,0x40,0x00,
  0x87,0x2D,0x40,0x00,0x96,0x45,0x68,0x00,0x97,0x29,0x73,0x81,0x70,0x86,0x45,0x40,
  0x00,0x96,0x40,0x66,0x81,0x04,0x80,0x45,0x40,0x2F,0xFF,0x20,0x01,0x00,0x00,0xF0,
  0x09,0x43,0x10,0x4C,0x02,0x01,0x42,0x00,0x3D,0xF7,0x01,0x90,0x43,0x6E,0x19,0xB0,
  0x0B,0x5C,0x1A,0x87,0x29,0x40,0x09,0x85,0x48,0x40,0x00,0x85,0x45,0x40,0x00,0x85,
  0x40,0x40,0x00,0x86,0x40,0x40,0x00,0x86,0x35,0x40,0x00,0x95,0x43,0x58,0x00,0x95,
  0x40,0x58,0x00,0x95,0x3C,0x58,0x00,0x96,0x3C,0x63,0x00,0x96,0x30,0x69,0x00,0x97,
  0x24,0x68,0x19,0xB0,0x0B,0x5E,0x14,0xB0,0x0B,0x5F,0x14,0xB0,0x0B,0x62,0x14,0xB0,
  0x0B,0x64,0x14,0xB0,0x0B,0x68,0x81,0x07,0x86,0x3C,0x40,0x00,0x96,0x40,0x65,0x81,
  0x16,0x80,0x43,0x40,0x00,0x90,0x43,0x69,0x46,0xB0,0x0B,0x5D,0x14,0x86,0x40,0x40,
  0x00,0x96,0x43,0x69,0x14,0xB0,0x0B,0x5E,0x14,0xB0,0x0B,0x60,0x14,0xB0,0x0B,0x63,
  0x14,0xB0,0x0B,0x67,0x81,0x20,0x86,0x43,0x40,0x00,0x96,0x48,0x64,0x5A,0x80,0x43,
  0x40,0x3B,0xFF,0x20,0x01,0x00,0x00,0xF0,0x09,0x43,0x10,0x4C,0x02,0x01,0x42,0x00,
  0x3C,0xF7,0x01,0x90,0x40,0x66,0x5A,0x86,0x48,0x40,0x00,0x87,0x24,0x40,0x00,0x96,
  0x43,0x63,0x00,0x97,0x28,0x6E,0x81,0x70,0x86,0x43,0x40,0x00,0x96,0x40,0x60,0x81,
  0x01,0xFF,0x20,0x01,0x00,0x00,0xF0,0x09,0x43,0x10,0x4C,0x02,0x01,0x42,0x00,0x3B,
  0xF7,0x01,0x80,0x40,0x40,0x00,0x90,0x41,0x6E,0x65,0x87,0x28,0x40,0x09,0x85,0x43,
  0x40,0x00,0x85,0x40,0x40,0x00,0x85,0x3C,0x40,0x00,0x86,0x40,0x40,0x00,0x86,0x30,
  0x40,0x00,0x94,0x59,0x6F,0x00,0x95,0x48,0x58,0x00,0x95,0x45,0x58,0x00,0x95,0x41,
  0x58,0x00,0x96,0x41,0x67,0x00,0x96,0x35,0x65,0x00,0x97,0x29,0x6E,0x00,0x9B,0x59,
  0x6F,0x78,0x84,0x59,0x40,0x00,0x8B,0x59,0x40,0x00,0x94,0x58,0x6D,0x00,0x9B,0x58,
  0x6D,0x11,0xB0,0x0B,0x64,0x3C,0xB0,0x0B,0x65,0x2B,0x84,0x58,0x40,0x00,0x86,0x41,
  0x40,0x00,0x8B,0x58,0x40,0x00,0x94,0x56,0x6E,0x00,0x96,0x45,0x5F,0x00,0x9B,0x56,
  0x6E,0x0A,0xB0,0x01,0x00,0x07,0xB0,0x0B,0x66,0x28,0xB0,0x0B,0x67,0x28,0xB0,0x0B,
  0x68,0x17,0x84,0x56,0x40,0x00,0x8B,0x56,0x40,0x00,0x94,0x54,0x69,0x00,0x9B,0x54,
  0x69,0x05,0xB0,0x0B,0x69,0x05,0xB0,0x01,0x01,0x28,0xB0,0x01,0x02,0x28,0xB0,0x01,
  0x03,0x0B,0xB0,0x0B,0x67,0x13,0x84,0x54,0x40,0x00,0x86,0x45,0x40,0x00,0x8B,0x54,
  0x40,0x00,0x94,0x56,0x6E,0x00,0x96,0x48,0x66,0x00,0x9B,0x56,0x6E,0x0A,0xB0,0x01,
  0x04,0x14,0xB0,0x01,0x05,0x14,0xB0,0x01,0x06,0x14,0xB0,0x01,0x07,0x0B,0xB0,0x0B,
  0x66,0x09,0xB0,0x01,0x08,0x14,0xB0,0x01,0x09,0x0A,0x84,0x56,0x40,0x00,0x8B,0x56,
  0x40,0x00,0x93,0x39,0x78,0x00,0x94,0x54,0x6E,0x00,0x9B,0x54,0x6E,0x01,0xB0,0x0B,
  0x65,0x09,0xB0,0x01,0x0A,0x0B,0xB0,0x0B,0x64,0x09,0xB0,0x01,0x0B,0x14,0xB0,0x01,
  0x0C,0x00,0x93,0x3A,0x73,0x0B,0xB0,0x0B,0x63,0x09,0xB0,0x01,0x0E,0x0B,0xB0,0x0B,
  0x62,0x09,0xB0,0x01,0x0F,0x0A,0x93,0x3C,0x6E,0x01,0xB0,0x0B,0x61,0x05,0x87,0x29,
  0x40,0x04,0xB0,0x01,0x11,0x0A,0x86,0x48,0x40,0x00,0x84,0x54,0x40,0x00,0x8B,0x54,
  0x40,0x00,0x94,0x52,0x64,0x00,0x96,0x45,0x63,0x00,0x97,0x29,0x64,0x00,0x9B,0x52,
  0x64,0x01,0xB0,0x0B,0x60,0x09,0xB0,0x01,0x12,0x0B,0xB0,0x0B,0x5E,0x09,0xB0,0x01,
  0x14,0x00,0x93,0x3E,0x6E,0x0B,0xB0,0x0B,0x5D,0x09,0xB0,0x01,0x15,0x0B,0xB0,0x0B,
  0x5B,0x09,0xB0,0x01,0x17,0x0A,0x93,0x40,0x69,0x01,0xB0,0x0B,0x5A,0x09,0xB0,0x01,
  0x19,0x0B,0xB0,0x0B,0x58,0x09,0xB0,0x01,0x1B,0x0A,0x84,0x52,0x40,0x00,0x8B,0x52,
  0x40,0x00,0x94,0x51,0x69,0x00,0x9B,0x51,0x69,0x01,0xB0,0x0B,0x57,0x09,0xB0,0x01,
  0x1D,0x00,0x93,0x41,0x66,0x0B,0xB0,0x0B,0x55,0x09,0xB0,0x01,0x1F,0x0B,0xB0,0x0B,
  0x53,0x13,0x93,0x43,0x64,0x01,0xB0,0x0B,0x51,0x14,0xB0,0x0B,0x4F,0x14,0xB0,0x0B,
  0x4C,0x09,0x93,0x45,0x63,0x06,0x87,0x29,0x40,0x04,0x84,0x51,0x40,0x00,0x86,0x45,
  0x40,0x00,0x8B,0x51,0x40,0x00,0x94,0x52,0x6C,0x00,0x96,0x48,0x69,0x00,0x97,0x2D,
  0x6E,0x00,0x9B,0x52,0x6C,0x0A,0x80,0x41,0x40,0x1E,0x93,0x46,0x63,0x32,0x93,0x47,
  0x62,0x1E,0x84,0x52,0x40,0x00,0x8B,0x52,0x40,0x00,0x94,0x51,0x70,0x00,0x9B,0x51,
  0x70,0x14,0x93,0x48,0x5F,0x32,0x93,0x4A,0x5F,0x32,0x84,0x51,0x40,0x00,0x86,0x48,
  0x40,0x00,0x87,0x2D,0x40,0x00,0x8B,0x51,0x40,0x00,0x93,0x4C,0x5E,0x00,0x94,0x4F,
  0x6E,0x00,0x96,0x45,0x64,0x00,0x97,0x2E,0x78,0x00,0x9B,0x4F,0x6E,0x32,0x93,0x4D,
  0x5B,0x22,0xB0,0x01,0x00,0x24,0x84,0x4F,0x40,0x00,0x8B,0x4F,0x40,0x00,0xB0,0x0B,
  0x6C,0x00,0x94,0x4D,0x70,0x00,0x9B,0x4D,0x70,0x1E,0xFF,0x20,0x01,0x0C,0x00,0xF0,
  0x38,0x43,0x79,0x09,0x00,0x50,0x10,0x6A,0x20,0x4D,0x2C,0x4D,0x2C,0x6D,0x20,0x65,
  0x2C,0x77,0x20,0x61,0x2C,0x69,0x2C,0x69,0x2C,0x6D,0x20,0x61,0x2C,0x6D,0x20,0x6F,
  0x2C,0x6D,0x20,0x65,0x2C,0x65,0x2C,0x67,0x20,0x4D,0x2C,0x4D,0x2C,0x34,0x27,0x20,
  0x69,0x2C,0x69,0x2C,0x74,0x20,0x65,0x00,0xF7,0x1D,0xFF,0x20,0x01,0x00,0x00,0xF0,
  0x09,0x43,0x10,0x4C,0x02,0x01,0x42,0x00,0x40,0xF7,0x01,0x90,0x43,0x73,0x2D,0xB0,
  0x0B,0x6A,0x00,0xB4,0x0B,0x64,0x00,0xBB,0x0B,0x64,0x0F,0x85,0x48,0x40,0x00,0x85,
  0x45,0x40,0x00,0x85,0x41,0x40,0x00,0x86,0x35,0x40,0x00,0x84,0x4D,0x40,0x00,0x86,
  0x45,0x40,0x00,0x87,0x2E,0x40,0x00,0x8B,0x4D,0x40,0x00,0x94,0x4F,0x73,0x00,0x95,
  0x43,0x58,0x00,0x95,0x40,0x58,0x00,0x95,0x3C,0x58,0x00,0x96,0x30,0x69,0x00,0x96,
  0x43,0x63,0x00,0x96,0x40,0x69,0x00,0x96,0x3C,0x63,0x00,0x97,0x24,0x6E,0x00,0x9B,
  0x4F,0x73,0x55,0xB0,0x0B,0x6B,0x28,0xB0,0x0B,0x6C,0x14,0xB0,0x0B,0x6D,0x14,0xB0,
  0x0B,0x6E,0x00,0xB4,0x0B,0x65,0x00,0xBB,0x0B,0x65,0x0F,0x90,0x41,0x5F,0x05,0xB0,
  0x0B,0x6F,0x14,0xB0,0x0B,0x70,0x14,0xB0,0x0B,0x71,0x0F,0x86,0x30,0x40,0x00,0x86,
  0x43,0x40,0x00,0x86,0x40,0x40,0x00,0x86,0x3C,0x40,0x00,0x80,0x43,0x40,0x00,0x96,
  0x30,0x69,0x00,0x96,0x43,0x65,0x00,0x96,0x40,0x63,0x00,0x96,0x3C,0x63,0x05,0xB0,
  0x0B,0x72,0x00,0xB4,0x0B,0x66,0x00,0xBB,0x0B,0x66,0x14,0xB0,0x0B,0x73,0x0F,0xB0,
  0x0B,0x75,0x05,0xB4,0x0B,0x67,0x00,0xBB,0x0B,0x67,0x28,0xB4,0x0B,0x68,0x00,0xBB,
  0x0B,0x68,0x37,0x90,0x43,0x6E,0x05,0xB4,0x0B,0x69,0x00,0xBB,0x0B,0x69,0x0B,0x80,
  0x41,0x40,0x09,0xB4,0x0B,0x6A,0x00,0xBB,0x0B,0x6A,0x0F,0x87,0x24,0x40,0x14,0x97,
  0x24,0x50,0x05,0xB4,0x0B,0x6B,0x00,0xBB,0x0B,0x6B,0x0F,0x87,0x24,0x40,0x00,0x97,
  0x26,0x5A,0x14,0x86,0x30,0x40,0x00,0x86,0x43,0x40,0x00,0x86,0x40,0x40,0x00,0x86,
  0x3C,0x40,0x00,0x87,0x26,0x40,0x00,0x96,0x30,0x64,0x00,0x96,0x43,0x67,0x00,0x96,
  0x40,0x63,0x00,0x96,0x3C,0x64,0x00,0x97,0x28,0x6E,0x05,0xB4,0x0B,0x6C,0x00,0xBB,
  0x0B,0x6C,0x0A,0xB4,0x0B,0x6D,0x00,0xBB,0x0B,0x6D,0x50,0xB0,0x0B,0x75,0x3C,0xB0,
  0x0B,0x74,0x28,0xB0,0x0B,0x73,0x14,0xB0,0x0B,0x71,0x14,0xB0,0x0B,0x70,0x05,0x87,
  0x28,0x40,0x00,0x97,0x26,0x6E,0x0F,0xB0,0x0B,0x6E,0x14,0xB0,0x0B,0x6C,0x14,0xB0,
  0x0B,0x6A,0x14,0xB0,0x0B,0x68,0x14,0xB0,0x0B,0x65,0x0A,0xB0,0x0B,0x63,0x0F,0x90,
  0x3C,0x69,0x05,0x80,0x43,0x40,0x5A,0xB0,0x0B,0x60,0x19,0x86,0x30,0x40,0x00,0x86,
  0x43,0x40,0x00,0x86,0x40,0x40,0x00,0x86,0x3C,0x40,0x00,0x87,0x26,0x40,0x00,0x96,
  0x30,0x65,0x00,0x96,0x43,0x5B,0x00,0x96,0x40,0x69,0x00,0x96,0x3C,0x63,0x00,0x97,
  0x24,0x6E,0x28,0xB0,0x01,0x00,0x23,0xB0,0x0B,0x61,0x14,0xB0,0x0B,0x62,0x05,0xB0,
  0x01,0x01,0x14,0xB0,0x01,0x02,0x0F,0xB0,0x0B,0x63,0x05,0xB0,0x01,0x04,0x0F,0xB0,
  0x0B,0x64,0x00,0xB4,0x0B,0x6C,0x00,0xBB,0x0B,0x6C,0x05,0xB0,0x01,0x06,0x0F,0xB0,
  0x0B,0x65,0x05,0xB0,0x01,0x08,0x0F,0xB0,0x0B,0x67,0x05,0xB0,0x01,0x0B,0x0F,0xB0,
  0x0B,0x68,0x05,0xB0,0x01,0x0E,0x0F,0xB0,0x0B,0x69,0x00,0xB4,0x0B,0x6B,0x00,0xBB,
  0x0B,0x6B,0x05,0xB0,0x01,0x12,0x0A,0xB0,0x0B,0x6B,0x0A,0xB0,0x01,0x16,0x0F,0xB4,
  0x0B,0x6A,0x00,0xBB,0x0B,0x6A,0x14,0xB4,0x0B,0x69,0x00,0xBB,0x0B,0x69,0x14,0xB4,
  0x0B,0x67,0x00,0xBB,0x0B,0x67,0x14,0xB4,0x0B,0x66,0x00,0xBB,0x0B,0x66,0x14,0xB4,
  0x0B,0x65,0x00,0xBB,0x0B,0x65,0x05,0x86,0x30,0x40,0x00,0x86,0x43,0x40,0x00,0x86,
  0x40,0x40,0x00,0x86,0x3C,0x40,0x00,0x80,0x3C,0x40,0x0F,0xB0,0x01,0x00,0x00,0xB4,
  0x0B,0x63,0x00,0xBB,0x0B,0x63,0x14,0xB4,0x0B,0x61,0x00,0xBB,0x0B,0x61,0x0F,0xB4,
  0x0B,0x5F,0x00,0xBB,0x0B,0x5F,0x09,0xFF,0x20,0x01,0x00,0x00,0xF0,0x09,0x43,0x10,
  0x4C,0x02,0x01,0x42,0x00,0x3B,0xF7,0x01,0x90,0x41,0x69,0x28,0xB4,0x0B,0x5F,0x00,
  0xBB,0x0B,0x5F,0x0F,0xB0,0x0B,0x62,0x05,0x84,0x4F,0x40,0x00,0x85,0x43,0x40,0x00,
  0x85,0x40,0x40,0x00,0x85,0x3C,0x40,0x00,0x87,0x24,0x40,0x00,0x8B,0x4F,0x40,0x00,
  0x94,0x51,0x72,0x00,0x95,0x48,0x58,0x00,0x95,0x45,0x58,0x00,0x95,0x41,0x58,0x00,
  0x96,0x35,0x62,0x00,0x96,0x48,0x64,0x00,0x96,0x45,0x69,0x00,0x96,0x41,0x66,0x00,
  0x97,0x29,0x6E,0x00,0x9B,0x51,0x72,0x23,0xB0,0x0B,0x63,0x14,0xB0,0x0B,0x64,0x05,
  0xB4,0x0B,0x60,0x00,0xBB,0x0B,0x60,0x0F,0xB0,0x0B,0x66,0x05,0xB4,0x0B,0x61,0x00,
  0xBB,0x0B,0x61,0x0F,0xB0,0x0B,0x68,0x05,0xB4,0x0B,0x62,0x00,0xBB,0x0B,0x62,0x0A,
  0xB0,0x0B,0x6B,0x0A,0x83,0x39,0x40,0x00,0xB4,0x0B,0x63,0x00,0xBB,0x0B,0x63,0x14,
  0xB4,0x0B,0x65,0x00,0xBB,0x0B,0x65,0x14,0xB4,0x0B,0x66,0x00,0xBB,0x0B,0x66,0x0A,
  0x83,0x3A,0x40,0x09,0xFF,0x20,0x01,0x00,0x00,0xF0,0x09,0x43,0x10,0x4C,0x02,0x01,
  0x42,0x00,0x3D,0xF7,0x01,0x90,0x43,0x5F,0x00,0xB4,0x0B,0x68,0x00,0xBB,0x0B,0x68,
  0x14,0xB4,0x0B,0x6A,0x00,0xBB,0x0B,0x6A,0x05,0xB4,0x0B,0x6B,0x00,0xBB,0x0B,0x6B,
  0x0F,0x83,0x3C,0x40,0x14,0x80,0x41,0x40,0x00,0x86,0x35,0x40,0x00,0x86,0x48,0x40,
  0x00,0x86,0x45,0x40,0x00,0x86,0x41,0x40,0x00,0x96,0x35,0x64,0x00,0x96,0x48,0x66,
  0x00,0x96,0x45,0x69,0x00,0x96,0x41,0x65,0x1E,0x83,0x3E,0x40,0x32,0x83,0x40,0x40,
  0x28,0xB0,0x0B,0x67,0x0A,0x83,0x41,0x40,0x13,0xFF,0x20,0x01,0x00,0x00,0xF0,0x09,
  0x43,0x10,0x4C,0x02,0x01,0x42,0x00,0x3C,0xF7,0x01,0x90,0x45,0x6C,0x1E,0x83,0x43,
  0x40,0x00,0x87,0x29,0x40,0x00,0xB0,0x0B,0x68,0x14,0xB0,0x0B,0x69,0x00,0x97,0x29,
  0x50,0x14,0x87,0x29,0x40,0x00,0xB0,0x0B,0x6B,0x00,0x97,0x2B,0x5A,0x0A,0x83,0x45,
  0x40,0x0A,0x80,0x43,0x40,0x00,0x86,0x35,0x40,0x00,0x86,0x48,0x40,0x00,0x86,0x45,
  0x40,0x00,0x86,0x41,0x40,0x00,0x87,0x2B,0x40,0x00,0xB0,0x0B,0x6C,0x00,0x96,0x35,
  0x63,0x00,0x96,0x48,0x69,0x00,0x96,0x45,0x65,0x00,0x96,0x41,0x63,0x00,0x97,0x2D,
  0x6E,0x14,0xB0,0x0B,0x6F,0x14,0x83,0x46,0x40,0x00,0xB0,0x0B,0x71,0x14,0xB0,0x0B,
  0x74,0x0A,0xB0,0x0B,0x76,0x14,0x83,0x47,0x40,0x32,0x83,0x48,0x40,0x32,0x83,0x4A,
  0x40,0x0A,0xB0,0x0B,0x76,0x28,0x83,0x4C,0x40,0x00,0x87,0x2D,0x40,0x00,0xB0,0x0B,
  0x75,0x00,0x97,0x2B,0x6E,0x14,0xB0,0x0B,0x74,0x14,0xB0,0x0B,0x72,0x0A,0x83,0x4D,
  0x40,0x0A,0xB0,0x0B,0x6F,0x14,0xB0,0x0B,0x6C,0x00,0xB4,0x0B,0x6C,0x00,0xBB,0x0B,
  0x6C,0x14,0xB0,0x0B,0x69,0x02,0x80,0x45,0x40,0x03,0xB0,0x0B,0x67,0x4B,0x90,0x45,
  0x6E,0x14,0xB4,0x0B,0x6B,0x00,0xBB,0x0B,0x6B,0x28,0x86,0x35,0x40,0x00,0x87,0x2B,
  0x40,0x00,0x86,0x48,0x40,0x00,0x86,0x45,0x40,0x00,0x86,0x41,0x40,0x00,0x96,0x35,
  0x6E,0x00,0x96,0x48,0x65,0x00,0x96,0x45,0x64,0x00,0x96,0x41,0x6F,0x00,0x97,0x29,
  0x6E,0x14,0xB4,0x0B,0x6A,0x00,0xBB,0x0B,0x6A,0x28,0xB4,0x0B,0x69,0x00,0xBB,0x0B,
  0x69,0x14,0xB4,0x0B,0x68,0x00,0xBB,0x0B,0x68,0x28,0xB4,0x0B,0x67,0x00,0xBB,0x0B,
  0x67,0x05,0xB0,0x01,0x00,0x0F,0xB4,0x0B,0x66,0x00,0xBB,0x0B,0x66,0x14,0xB4,0x0B,
  0x65,0x00,0xBB,0x0B,0x65,0x14,0xB4,0x0B,0x64,0x00,0xBB,0x0B,0x64,0x05,0xB0,0x01,
  0x01,0x0F,0xB4,0x0B,0x63,0x00,0xBB,0x0B,0x63,0x05,0xB0,0x01,0x02,0x05,0xB0,0x0B,
  0x66,0x0A,0xB4,0x0B,0x62,0x00,0xBB,0x0B,0x62,0x05,0xB0,0x01,0x03,0x0F,0xB4,0x0B,
  0x61,0x00,0xBB,0x0B,0x61,0x05,0xB0,0x01,0x04,0x0F,0xB4,0x0B,0x60,0x00,0xBB,0x0B,
  0x60,0x05,0xB0,0x01,0x06,0x05,0xB0,0x0B,0x67,0x0A,0xB4,0x0B,0x5F,0x00,0xBB,0x0B,
  0x5F,0x05,0xB0,0x01,0x08,0x0F,0xB4,0x0B,0x5E,0x00,0xBB,0x0B,0x5E,0x05,0xB0,0x01,
  0x0A,0x05,0xB0,0x0B,0x68,0x0A,0xB4,0x0B,0x5C,0x00,0xBB,0x0B,0x5C,0x05,0xB0,0x01,
  0x0D,0x05,0xB0,0x0B,0x6A,0x0A,0xB4,0x0B,0x5B,0x00,0xBB,0x0B,0x5B,0x05,0xB0,0x01,
  0x0F,0x05,0xB0,0x0B,0x6B,0x0A,0x86,0x35,0x40,0x00,0x86,0x48,0x40,0x00,0x86,0x45,
  0x40,0x00,0x86,0x41,0x40,0x00,0xB0,0x01,0x12,0x00,0xB4,0x0B,0x59,0x00,0xBB,0x0B,
  0x59,0x0A,0xB0,0x0B,0x6D,0x02,0x80,0x45,0x40,0x03,0xB0,0x0B,0x6E,0x05,0xB4,0x0B,
  0x58,0x00,0xBB,0x0B,0x58,0x14,0xB4,0x0B,0x56,0x00,0xBB,0x0B,0x56,0x13,0xFF,0x20,
  0x01,0x00,0x00,0xF0,0x09,0x43,0x10,0x4C,0x02,0x01,0x42,0x00,0x3B,0xF7,0x01,0x90,
  0x46,0x6E,0x00,0xB4,0x0B,0x55,0x00,0xBB,0x0B,0x55,0x0F,0xB4,0x0B,0x53,0x00,0xBB,
  0x0B,0x53,0x0F,0xB0,0x01,0x00,0x19,0xB4,0x0B,0x54,0x00,0xBB,0x0B,0x54,0x05,0x84,
  0x51,0x40,0x00,0x85,0x48,0x40,0x00,0x85,0x45,0x40,0x00,0x85,0x41,0x40,0x00,0x87,
  0x29,0x40,0x00,0x8B,0x51,0x40,0x00,0x94,0x52,0x6E,0x00,0x95,0x3E,0x58,0x00,0x95,
  0x41,0x58,0x00,0x95,0x46,0x58,0x00,0x96,0x3A,0x63,0x00,0x96,0x46,0x5F,0x00,0x96,
  0x41,0x6E,0x00,0x96,0x3E,0x63,0x00,0x97,0x2E,0x6E,0x00,0x9B,0x52,0x6E,0x14,0xB4,
  0x0B,0x55,0x00,0xBB,0x0B,0x55,0x3C,0xB4,0x0B,0x56,0x00,0xBB,0x0B,0x56,0x28,0xB4,
  0x0B,0x57,0x00,0xBB,0x0B,0x57,0x14,0xB4,0x0B,0x59,0x00,0xBB,0x0B,0x59,0x14,0xB4,
  0x0B,0x5A,0x00,0xBB,0x0B,0x5A,0x14,0x90,0x45,0x55,0x00,0xB4,0x0B,0x5C,0x00,0xBB,
  0x0B,0x5C,0x14,0xB4,0x0B,0x5E,0x00,0xBB,0x0B,0x5E,0x14,0xB4,0x0B,0x60,0x00,0xBB,
  0x0B,0x60,0x10,0x87,0x2E,0x40,0x04,0x80,0x46,0x40,0x00,0x86,0x3A,0x40,0x00,0x86,
  0x46,0x40,0x00,0x86,0x41,0x40,0x00,0x86,0x3E,0x40,0x00,0xB4,0x0B,0x62,0x00,0x96,
  0x3A,0x67,0x00,0x96,0x46,0x66,0x00,0x96,0x41,0x63,0x00,0x96,0x3E,0x6E,0x00,0x97,
  0x2D,0x70,0x00,0xBB,0x0B,0x62,0x14,0xB4,0x0B,0x65,0x00,0xBB,0x0B,0x65,0x0A,0xB4,
  0x0B,0x67,0x00,0xBB,0x0B,0x67,0x81,0x16,0x90,0x46,0x6E,0x05,0xB0,0x0B,0x71,0x33,
  0x87,0x2D,0x40,0x04,0x86,0x3A,0x40,0x00,0x86,0x46,0x40,0x00,0x86,0x41,0x40,0x00,
  0x86,0x3E,0x40,0x00,0x80,0x45,0x40,0x00,0x96,0x3A,0x64,0x00,0x96,0x46,0x65,0x00,
  0x96,0x41,0x66,0x00,0x96,0x3E,0x69,0x00,0x97,0x2B,0x71,0x2D,0xB0,0x0B,0x70,0x28,
  0xB0,0x0B,0x6F,0x14,0xB0,0x0B,0x6E,0x14,0xB0,0x0B,0x6D,0x23,0xB0,0x01,0x00,0x05,
  0xB0,0x0B,0x6B,0x14,0xB0,0x0B,0x6A,0x14,0xB0,0x0B,0x69,0x14,0xB0,0x0B,0x68,0x0F,
  0xB0,0x01,0x01,0x05,0xB0,0x0B,0x66,0x14,0xB0,0x0B,0x65,0x0F,0xB0,0x01,0x02,0x05,
  0xB0,0x0B,0x63,0x0F,0xB0,0x01,0x03,0x05,0xB0,0x0B,0x61,0x0F,0xB0,0x01,0x04,0x05,
  0xB0,0x0B,0x5F,0x0F,0xB0,0x01,0x05,0x14,0xB0,0x01,0x07,0x14,0xB0,0x01,0x08,0x14,
  0xB0,0x01,0x0A,0x14,0xB0,0x01,0x0B,0x0F,0xB0,0x0B,0x5F,0x05,0xB0,0x01,0x0D,0x14,
  0xB0,0x01,0x0F,0x14,0x86,0x3A,0x40,0x00,0x86,0x46,0x40,0x00,0x86,0x41,0x40,0x00,
  0x86,0x3E,0x40,0x00,0xB0,0x01,0x12,0x0F,0xB0,0x0B,0x60,0x05,0xB0,0x01,0x14,0x05,
  0xB0,0x01,0x15,0x1E,0xB0,0x0B,0x61,0x14,0xB0,0x0B,0x63,0x14,0xB0,0x0B,0x64,0x14,
  0xB0,0x0B,0x66,0x14,0xB0,0x0B,0x68,0x14,0xB0,0x0B,0x6A,0x14,0xB0,0x0B,0x6D,0x04,
  0xFF,0x20,0x01,0x00,0x00,0xF0,0x09,0x43,0x10,0x4C,0x02,0x01,0x42,0x00,0x3C,0xF7,
  0x01,0x90,0x4A,0x7D,0x0F,0xB0,0x0B,0x6F,0x14,0xB0,0x0B,0x72,0x00,0xB0,0x01,0x00,
  0x0B,0x87,0x2B,0x40,0x09,0xB0,0x0B,0x75,0x05,0x84,0x52,0x40,0x00,0x80,0x46,0x40,
  0x00,0x8B,0x52,0x40,0x00,0x94,0x56,0x78,0x00,0x96,0x3A,0x65,0x00,0x96,0x46,0x62,
  0x00,0x96,0x41,0x5F,0x00,0x96,0x3E,0x63,0x00,0x97,0x32,0x69,0x00,0x9B,0x56,0x78,
  0x0F,0xB0,0x0B,0x79,0x0A,0xB0,0x0B,0x7B,0x81,0x1A,0xFF,0x20,0x01,0x00,0x00,0xF0,
  0x09,0x43,0x10,0x4C,0x02,0x01,0x42,0x00,0x3E,0xF7,0x01,0x90,0x48,0x7A,0x23,0xB4,
  0x0B,0x5F,0x00,0xBB,0x0B,0x5F,0x15,0x87,0x32,0x40,0x04,0x80,0x4A,0x40,0x00,0x84,
  0x56,0x40,0x00,0x85,0x3E,0x40,0x00,0x85,0x41,0x40,0x00,0x85,0x46,0x40,0x00,0x86,
  0x3A,0x40,0x00,0x86,0x46,0x40,0x00,0x86,0x41,0x40,0x00,0x86,0x3E,0x40,0x00,0x8B,
  0x56,0x40,0x00,0x94,0x54,0x6E,0x00,0x95,0x48,0x58,0x00,0x95,0x45,0x58,0x00,0x95,
  0x41,0x58,0x00,0x96,0x35,0x6E,0x00,0x96,0x48,0x66,0x00,0x96,0x45,0x6E,0x00,0x96,
  0x41,0x69,0x00,0x97,0x30,0x6C,0x00,0x9B,0x54,0x6E,0x0F,0xB4,0x0B,0x60,0x00,0xBB,
  0x0B,0x60,0x14,0xB4,0x0B,0x61,0x00,0xBB,0x0B,0x61,0x14,0xB4,0x0B,0x63,0x00,0xBB,
  0x0B,0x63,0x14,0xB4,0x0B,0x65,0x00,0xBB,0x0B,0x65,0x14,0xB4,0x0B,0x68,0x00,0xBB,
  0x0B,0x68,0x14,0xB4,0x0B,0x6B,0x00,0xBB,0x0B,0x6B,0x14,0xB4,0x0B,0x6F,0x00,0xBB,
  0x0B,0x6F,0x14,0xB4,0x0B,0x73,0x00,0xBB,0x0B,0x73,0x0A,0xB4,0x0B,0x76,0x00,0xBB,
  0x0B,0x76,0x0E,0xFF,0x20,0x01,0x00,0x00,0xF0,0x09,0x43,0x10,0x4C,0x02,0x01,0x42,
  0x00,0x3D,0xF7,0x01,0x90,0x46,0x76,0x38,0x87,0x30,0x40,0x04,0x86,0x35,0x40,0x00,
  0x86,0x48,0x40,0x00,0x86,0x45,0x40,0x00,0x86,0x41,0x40,0x00,0x80,0x48,0x40,0x00,
  0x96,0x35,0x66,0x00,0x96,0x48,0x68,0x00,0x96,0x45,0x69,0x00,0x96,0x41,0x6E,0x00,
  0x97,0x2E,0x65,0x78,0x80,0x46,0x40,0x1E,0xB4,0x0B,0x75,0x00,0xBB,0x0B,0x75,0x09,
  0xFF,0x20,0x01,0x00,0x00,0xF0,0x09,0x43,0x10,0x4C,0x02,0x01,0x42,0x00,0x3C,0xF7,
  0x01,0x90,0x45,0x70,0x32,0xB4,0x0B,0x74,0x00,0xBB,0x0B,0x74,0x14,0xB4,0x0B,0x73,
  0x00,0xBB,0x0B,0x73,0x06,0x87,0x2E,0x40,0x04,0x84,0x54,0x40,0x00,0x86,0x35,0x40,
  0x00,0x86,0x48,0x40,0x00,0x86,0x45,0x40,0x00,0x86,0x41,0x40,0x00,0x8B,0x54,0x40,
  0x00,0x94,0x51,0x69,0x00,0x96,0x35,0x63,0x00,0x96,0x48,0x69,0x00,0x96,0x45,0x68,
  0x00,0x96,0x41,0x67,0x00,0x97,0x2D,0x69,0x00,0x9B,0x51,0x69,0x0A,0xB4,0x0B,0x72,
  0x00,0xBB,0x0B,0x72,0x14,0xB4,0x0B,0x71,0x00,0xBB,0x0B,0x71,0x0F,0xB0,0x0B,0x79,
  0x05,0xB4,0x0B,0x6F,0x00,0xBB,0x0B,0x6F,0x0A,0xB0,0x01,0x00,0x0A,0xB4,0x0B,0x6D,
  0x00,0xBB,0x0B,0x6D,0x14,0xB4,0x0B,0x6B,0x00,0xBB,0x0B,0x6B,0x14,0xB4,0x0B,0x69,
  0x00,0xBB,0x0B,0x69,0x0F,0xB4,0x0B,0x66,0x00,0xBB,0x0B,0x66,0x0F,0xB0,0x01,0x01,
  0x05,0xB0,0x0B,0x78,0x14,0xB0,0x0B,0x77,0x0F,0xB0,0x01,0x02,0x14,0xB0,0x01,0x03,
  0x05,0xB0,0x0B,0x76,0x0F,0xB0,0x01,0x04,0x05,0xB0,0x0B,0x75,0x0F,0x87,0x2D,0x40,
  0x00,0xB0,0x01,0x05,0x00,0x97,0x2B,0x69,0x05,0xB0,0x0B,0x73,0x0F,0xB0,0x01,0x06,
  0x05,0xB0,0x0B,0x72,0x0F,0xB0,0x01,0x07,0x05,0xB0,0x0B,0x71,0x0F,0xB0,0x01,0x09,
  0x05,0xB0,0x0B,0x6F,0x0F,0xB0,0x01,0x0A,0x05,0xB0,0x0B,0x6E,0x0F,0xB0,0x01,0x0C,
  0x05,0xB0,0x0B,0x6C,0x0F,0xB0,0x01,0x0E,0x05,0xB0,0x0B,0x6A,0x0F,0xB0,0x01,0x10,
  0x05,0xB0,0x0B,0x68,0x0F,0xB0,0x01,0x12,0x05,0xB0,0x0B,0x66,0x0F,0xB0,0x01,0x14,
  0x00,0xB4,0x0B,0x63,0x00,0xBB,0x0B,0x63,0x05,0xB0,0x0B,0x64,0x0F,0xB0,0x01,0x17,
  0x05,0xB0,0x0B,0x61,0x0F,0xB0,0x01,0x19,0x05,0xB0,0x0B,0x5F,0x0F,0x87,0x2B,0x40,
  0x00,0xB0,0x01,0x1C,0x00,0x97,0x29,0x69,0x05,0xB0,0x0B,0x5C,0x00,0xB0,0x01,0x1D,
  0x0F,0xB4,0x0B,0x62,0x00,0xBB,0x0B,0x62,0x05,0xB0,0x0B,0x5A,0x14,0xB0,0x0B,0x57,
  0x0F,0xB4,0x0B,0x61,0x00,0xBB,0x0B,0x61,0x05,0xB0,0x0B,0x54,0x0F,0xB4,0x0B,0x60,
  0x00,0xBB,0x0B,0x60,0x05,0xB0,0x0B,0x51,0x0F,0xB0,0x0B,0x4E,0x00,0xB4,0x0B,0x5F,
  0x00,0xBB,0x0B,0x5F,0x14,0xB4,0x0B,0x5E,0x00,0xBB,0x0B,0x5E,0x14,0xB4,0x0B,0x5D,
  0x00,0xBB,0x0B,0x5D,0x14,0x80,0x45,0x40,0x00,0xB4,0x0B,0x5C,0x00,0xBB,0x0B,0x5C,
  0x14,0xB4,0x0B,0x5A,0x00,0xBB,0x0B,0x5A,0x14,0xB4,0x0B,0x58,0x00,0xBB,0x0B,0x58,
  0x14,0xB4,0x0B,0x57,0x00,0xBB,0x0B,0x57,0x14,0x86,0x35,0x40,0x00,0x86,0x48,0x40,
  0x00,0x86,0x45,0x40,0x00,0x86,0x41,0x40,0x00,0xB4,0x0B,0x55,0x00,0xBB,0x0B,0x55,
  0x14,0xB4,0x0B,0x53,0x00,0xBB,0x0B,0x53,0x14,0xB4,0x0B,0x51,0x00,0xBB,0x0B,0x51,
  0x14,0xB4,0x0B,0x4E,0x00,0xBB,0x0B,0x4E,0x14,0xB4,0x0B,0x4C,0x00,0xBB,0x0B,0x4C,
  0x14,0xB4,0x0B,0x49,0x00,0xBB,0x0B,0x49,0x08,0xB0,0x01,0x00,0x0C,0x87,0x29,0x40,
  0x00,0xB4,0x0B,0x47,0x00,0xBB,0x0B,0x47,0x14,0xB4,0x0B,0x44,0x00,0xBB,0x0B,0x44,
  0x0A,0xFF,0x20,0x01,0x0C,0x00,0xF0,0x31,0x43,0x79,0x09,0x00,0x50,0x10,0x77,0x20,
  0x61,0x2C,0x73,0x20,0x4D,0x2C,0x34,0x20,0x65,0x2C,0x67,0x20,0x61,0x2C,0x74,0x20,
  0x61,0x2C,0x6B,0x27,0x20,0x69,0x2C,0x70,0x5C,0x20,0x4D,0x2C,0x34,0x20,0x4D,0x2C,
  0x73,0x20,0x61,0x2C,0x74,0x20,0x6F,0x00,0xF7,0x05,0xB4,0x0B,0x41,0x00,0xBB,0x0B,
  0x41,0x0F,0xB0,0x0B,0x5C,0x09,0xFF,0x20,0x01,0x00,0x00,0xF0,0x09,0x43,0x10,0x4C,
  0x02,0x01,0x42,0x00,0x3E,0xF7,0x01,0x90,0x48,0x6E,0x1E,0xB0,0x0B,0x5D,0x05,0xB4,
  0x0B,0x4C,0x00,0xBB,0x0B,0x4C,0x0F,0xB0,0x0B,0x5E,0x0A,0x84,0x51,0x40,0x00,0x85,
  0x48,0x40,0x00,0x85,0x45,0x40,0x00,0x85,0x41,0x40,0x00,0x8B,0x51,0x40,0x00,0x94,
  0x59,0x69,0x00,0x95,0x48,0x58,0x00,0x95,0x45,0x58,0x00,0x95,0x41,0x58,0x00,0x96,
  0x41,0x5F,0x00,0x96,0x35,0x65,0x00,0x97,0x29,0x67,0x00,0x9B,0x59,0x69,0x0A,0xB0,
  0x0B,0x60,0x14,0xB0,0x0B,0x63,0x05,0xB4,0x0B,0x4D,0x00,0xBB,0x0B,0x4D,0x0F,0xB0,
  0x0B,0x66,0x05,0xB4,0x0B,0x4E,0x00,0xBB,0x0B,0x4E,0x0F,0xB0,0x0B,0x6A,0x05,0xB4,
  0x0B,0x4F,0x00,0xBB,0x0B,0x4F,0x0F,0xB0,0x0B,0x6F,0x05,0xB4,0x0B,0x51,0x00,0xBB,
  0x0B,0x51,0x0A,0xB0,0x0B,0x73,0x0A,0xB4,0x0B,0x53,0x00,0xBB,0x0B,0x53,0x14,0xB4,
  0x0B,0x55,0x00,0xBB,0x0B,0x55,0x05,0xB4,0x0B,0x56,0x00,0xBB,0x0B,0x56,0x64,0x84,
  0x59,0x40,0x00,0x86,0x41,0x40,0x00,0x8B,0x59,0x40,0x00,0x94,0x58,0x64,0x00,0x96,
  0x45,0x64,0x00,0x9B,0x58,0x64,0x81,0x11,0x80,0x48,0x40,0x0E,0xFF,0x20,0x01,0x00,
  0x00,0xF0,0x09,0x43,0x10,0x4C,0x02,0x01,0x42,0x00,0x3D,0xF7,0x01,0x90,0x48,0x69,
  0x05,0xB0,0x0B,0x5B,0x28,0xB0,0x0B,0x5C,0x14,0xB0,0x0B,0x5D,0x07,0x87,0x29,0x40,
  0x08,0x84,0x58,0x40,0x00,0x86,0x45,0x40,0x00,0x8B,0x58,0x40,0x00,0x94,0x59,0x62,
  0x00,0x96,0x48,0x63,0x00,0x97,0x24,0x6B,0x00,0x9B,0x59,0x62,0x05,0xB0,0x0B,0x5F,
  0x14,0xB0,0x0B,0x62,0x14,0xB0,0x0B,0x65,0x14,0xB0,0x0B,0x69,0x14,0xB0,0x0B,0x6E,
  0x0A,0xB0,0x0B,0x71,0x81,0x11,0x86,0x48,0x40,0x00,0x96,0x45,0x67,0x81,0x00,0x80,
  0x48,0x40,0x0B,0xFF,0x20,0x01,0x00,0x00,0xF0,0x09,0x43,0x10,0x4C,0x02,0x01,0x42,
  0x00,0x3B,0xF7,0x01,0x90,0x48,0x6E,0x23,0xB0,0x0B,0x5B,0x39,0x87,0x24,0x40,0x03,
  0xB0,0x0B,0x5D,0x05,0x84,0x59,0x40,0x00,0x86,0x45,0x40,0x00,0x8B,0x59,0x40,0x00,
  0x94,0x54,0x67,0x00,0x96,0x48,0x64,0x00,0x97,0x21,0x6D,0x00,0x9B,0x54,0x67,0x0F,
  0xB0,0x0B,0x5E,0x14,0xB0,0x0B,0x61,0x14,0xB0,0x0B,0x63,0x14,0xB0,0x0B,0x67,0x14,
  0xB0,0x0B,0x6A,0x0F,0xB0,0x0B,0x6E,0x81,0x02,0x86,0x48,0x40,0x00,0x96,0x45,0x65,
  0x70,0x80,0x48,0x40,0x1C,0xB0,0x0B,0x60,0x27,0xFF,0x20,0x01,0x00,0x00,0xF0,0x09,
  0x43,0x10,0x4C,0x02,0x01,0x42,0x00,0x3B,0xF7,0x01,0x90,0x41,0x6C,0x28,0xB0,0x0B,
  0x61,0x0B,0x87,0x21,0x40,0x09,0x84,0x54,0x40,0x00,0x86,0x45,0x40,0x00,0x86,0x35,
  0x40,0x00,0x8B,0x54,0x40,0x00,0xB0,0x0B,0x62,0x00,0x94,0x51,0x64,0x00,0x96,0x41,
  0x63,0x00,0x96,0x35,0x63,0x00,0x97,0x24,0x6E,0x00,0x9B,0x51,0x64,0x14,0xB0,0x0B,
  0x63,0x14,0xB0,0x0B,0x64,0x14,0xB0,0x0B,0x66,0x14,0xB0,0x0B,0x68,0x05,0xB4,0x0B,
  0x54,0x00,0xBB,0x0B,0x54,0x0F,0xB0,0x0B,0x69,0x14,0xB0,0x0B,0x6C,0x14,0xB0,0x0B,
  0x6E,0x05,0xB0,0x0B,0x6F,0x50,0xB0,0x01,0x01,0x00,0xB4,0x0B,0x55,0x00,0xBB,0x0B,
  0x55,0x0F,0x86,0x41,0x40,0x00,0x96,0x45,0x69,0x05,0xB0,0x01,0x02,0x28,0xB0,0x01,
  0x03,0x00,0xB4,0x0B,0x56,0x00,0xBB,0x0B,0x56,0x14,0xB0,0x01,0x04,0x14,0xB0,0x01,
  0x06,0x00,0xB4,0x0B,0x57,0x00,0xBB,0x0B,0x57,0x14,0xB0,0x01,0x07,0x14,0xB0,0x01,
  0x08,0x00,0xB4,0x0B,0x58,0x00,0xBB,0x0B,0x58,0x14,0xB0,0x01,0x0A,0x00,0xB4,0x0B,
  0x59,0x00,0xBB,0x0B,0x59,0x14,0xB0,0x01,0x0B,0x14,0xB0,0x01,0x0D,0x00,0xB4,0x0B,
  0x5A,0x00,0xBB,0x0B,0x5A,0x0A,0xB4,0x0B,0x5B,0x00,0xBB,0x0B,0x5B,0x2D,0x86,0x45,
  0x40,0x00,0x96,0x48,0x65,0x81,0x2A,0x80,0x41,0x40,0x09,0xFF,0x20,0x01,0x00,0x00,
  0xF0,0x09,0x43,0x10,0x4C,0x02,0x01,0x42,0x00,0x3D,0xF7,0x01,0x90,0x43,0x69,0x19,
  0xB0,0x01,0x00,0x05,0xB4,0x0B,0x59,0x00,0xBB,0x0B,0x59,0x10,0x87,0x24,0x40,0x0E,
  0x86,0x48,0x40,0x00,0x96,0x4D,0x63,0x00,0x97,0x24,0x70,0x46,0xB4,0x0B,0x58,0x00,
  0xBB,0x0B,0x58,0x28,0xB4,0x0B,0x57,0x00,0xBB,0x0B,0x57,0x14,0xB4,0x0B,0x56,0x00,
  0xBB,0x0B,0x56,0x1A,0x80,0x43,0x40,0x0E,0xB4,0x0B,0x55,0x00,0xBB,0x0B,0x55,0x09,
  0xFF,0x20,0x01,0x00,0x00,0xF0,0x09,0x43,0x10,0x4C,0x02,0x01,0x42,0x00,0x3C,0xF7,
  0x01,0x90,0x45,0x6E,0x0A,0xB4,0x0B,0x54,0x00,0xBB,0x0B,0x54,0x14,0xB4,0x0B,0x52,
  0x00,0xBB,0x0B,0x52,0x14,0xB4,0x0B,0x51,0x00,0xBB,0x0B,0x51,0x06,0x87,0x24,0x40,
  0x04,0x84,0x51,0x40,0x00,0x86,0x4D,0x40,0x00,0x8B,0x51,0x40,0x00,0x94,0x54,0x69,
  0x00,0x96,0x48,0x69,0x00,0x97,0x29,0x6E,0x00,0x9B,0x54,0x69,0x0A,0xB4,0x0B,0x50,
  0x00,0xBB,0x0B,0x50,0x05,0xB4,0x0B,0x4F,0x00,0xBB,0x0B,0x4F,0x81,0x11,0xB0,0x0B,
  0x6D,0x28,0xB0,0x0B,0x6C,0x14,0xB0,0x0B,0x6A,0x14,0x86,0x48,0x40,0x00,0xB0,0x0B,
  0x68,0x00,0x96,0x45,0x66,0x14,0xB0,0x0B,0x65,0x14,0xB0,0x0B,0x61,0x14,0xB0,0x0B,
  0x5D,0x0A,0xB0,0x0B,0x5A,0x3E,0x80,0x45,0x40,0x2B,0xB4,0x0B,0x4D,0x00,0xBB,0x0B,
  0x4D,0x04,0xFF,0x20,0x01,0x00,0x00,0xF0,0x09,0x43,0x10,0x4C,0x02,0x01,0x42,0x00,
  0x38,0xF7,0x01,0x90,0x46,0x6E,0x33,0x87,0x29,0x40,0x04,0xB0,0x0B,0x5D,0x05,0x84,
  0x54,0x40,0x00,0x85,0x48,0x40,0x00,0x85,0x45,0x40,0x00,0x85,0x41,0x40,0x00,0x86,
  0x45,0x40,0x00,0x86,0x35,0x40,0x00,0x8B,0x54,0x40,0x00,0x94,0x52,0x60,0x00,0x95,
  0x3E,0x58,0x00,0x95,0x41,0x58,0x00,0x95,0x46,0x58,0x00,0x96,0x4D,0x64,0x00,0x96,
  0x3A,0x65,0x00,0x97,0x2E,0x77,0x00,0x9B,0x52,0x60,0x23,0xB0,0x0B,0x5E,0x14,0xB0,
  0x0B,0x5F,0x00,0xB4,0x0B,0x4E,0x00,0xBB,0x0B,0x4E,0x14,0xB0,0x0B,0x61,0x14,0xB0,
  0x0B,0x64,0x14,0xB0,0x0B,0x67,0x00,0xB4,0x0B,0x4F,0x00,0xBB,0x0B,0x4F,0x14,0xB0,
  0x0B,0x6B,0x00,0xB4,0x0B,0x50,0x00,0xBB,0x0B,0x50,0x05,0xB0,0x0B,0x6D,0x23,0xB4,
  0x0B,0x51,0x00,0xBB,0x0B,0x51,0x14,0xB4,0x0B,0x52,0x00,0xBB,0x0B,0x52,0x14,0xB4,
  0x0B,0x53,0x00,0xBB,0x0B,0x53,0x19,0x86,0x4D,0x40,0x00,0x96,0x4A,0x63,0x0F,0xB4,
  0x0B,0x54,0x00,0xBB,0x0B,0x54,0x14,0xB4,0x0B,0x55,0x00,0xBB,0x0B,0x55,0x14,0xB4,
  0x0B,0x57,0x00,0xBB,0x0B,0x57,0x14,0xB4,0x0B,0x58,0x00,0xBB,0x0B,0x58,0x14,0xB4,
  0x0B,0x59,0x00,0xBB,0x0B,0x59,0x14,0xB4,0x0B,0x5A,0x00,0xBB,0x0B,0x5A,0x05,0xB4,
  0x0B,0x5B,0x00,0xBB,0x0B,0x5B,0x3B,0xFF,0x20,0x01,0x00,0x00,0xF0,0x09,0x43,0x10,
  0x4C,0x02,0x01,0x42,0x00,0x3D,0xF7,0x01,0x90,0x46,0x70,0x0A,0xB0,0x0B,0x64,0x1E,
  0xB4,0x0B,0x59,0x00,0xBB,0x0B,0x59,0x0A,0xB0,0x0B,0x65,0x0A,0x86,0x4A,0x40,0x00,
  0x86,0x3A,0x40,0x00,0x96,0x46,0x65,0x00,0x96,0x3A,0x69,0x0A,0xB0,0x0B,0x67,0x14,
  0xB0,0x0B,0x69,0x14,0xB0,0x0B,0x6D,0x0A,0xB0,0x0B,0x6F,0x64,0xB4,0x0B,0x58,0x00,
  0xBB,0x0B,0x58,0x50,0x86,0x46,0x40,0x00,0xB4,0x0B,0x57,0x00,0x96,0x4A,0x66,0x00,
  0xBB,0x0B,0x57,0x28,0xB4,0x0B,0x56,0x00,0xBB,0x0B,0x56,0x3C,0xB4,0x0B,0x55,0x00,
  0xBB,0x0B,0x55,0x0A,0xB0,0x0B,0x5E,0x1E,0x90,0x43,0x6E,0x00,0xB4,0x0B,0x54,0x00,
  0xBB,0x0B,0x54,0x14,0xB4,0x0B,0x53,0x00,0xBB,0x0B,0x53,0x0A,0xB0,0x0B,0x5F,0x0A,
  0x80,0x46,0x40,0x00,0x80,0x46,0x40,0x0A,0xB0,0x0B,0x61,0x0A,0xB4,0x0B,0x52,0x00,
  0xBB,0x0B,0x52,0x0A,0xB0,0x0B,0x63,0x14,0xB0,0x0B,0x65,0x0A,0x84,0x52,0x40,0x00,
  0x85,0x3E,0x40,0x00,0x85,0x41,0x40,0x00,0x85,0x46,0x40,0x00,0x86,0x4A,0x40,0x00,
  0x86,0x3A,0x40,0x00,0x87,0x2E,0x40,0x00,0x8B,0x52,0x40,0x00,0xB4,0x0B,0x51,0x00,
  0x94,0x4F,0x64,0x00,0x95,0x43,0x58,0x00,0x95,0x40,0x58,0x00,0x95,0x3C,0x58,0x00,
  0x96,0x48,0x69,0x00,0x96,0x37,0x65,0x00,0x97,0x2B,0x69,0x00,0xBB,0x0B,0x51,0x00,
  0x9B,0x4F,0x64,0x0A,0xB0,0x0B,0x68,0x0A,0xB4,0x0B,0x50,0x00,0xBB,0x0B,0x50,0x0A,
  0xB0,0x0B,0x6C,0x0A,0xB0,0x0B,0x6E,0x00,0xB4,0x0B,0x4F,0x00,0xBB,0x0B,0x4F,0x81,
  0x48,0x86,0x48,0x40,0x00,0x96,0x43,0x64,0x81,0x33,0xFF,0x20,0x01,0x00,0x00,0xF0,
  0x09,0x43,0x10,0x4C,0x02,0x01,0x42,0x00,0x3B,0xF7,0x01,0x80,0x43,0x40,0x00,0xB0,
  0x0B,0x6D,0x00,0x90,0x41,0x6C,0x0F,0xB4,0x0B,0x4E,0x00,0xBB,0x0B,0x4E,0x24,0x87,
  0x2B,0x40,0x09,0x84,0x4F,0x40,0x00,0x85,0x43,0x40,0x00,0x85,0x40,0x40,0x00,0x85,
  0x3C,0x40,0x00,0x86,0x43,0x40,0x00,0x86,0x37,0x40,0x00,0x8B,0x4F,0x40,0x00,0x94,
  0x4D,0x66,0x00,0x95,0x48,0x58,0x00,0x95,0x45,0x58,0x00,0x95,0x41,0x58,0x00,0x96,
  0x45,0x69,0x00,0x96,0x35,0x6E,0x00,0x97,0x29,0x6E,0x00,0x9B,0x4D,0x66,0x73,0xB4,
  0x0B,0x4F,0x00,0xBB,0x0B,0x4F,0x35,0xB0,0x01,0x00,0x07,0xB4,0x0B,0x50,0x00,0xBB,
  0x0B,0x50,0x28,0xB4,0x0B,0x51,0x00,0xBB,0x0B,0x51,0x19,0x86,0x45,0x40,0x00,0x96,
  0x48,0x66,0x0F,0xB4,0x0B,0x52,0x00,0xBB,0x0B,0x52,0x28,0xB4,0x0B,0x53,0x00,0xBB,
  0x0B,0x53,0x28,0xB4,0x0B,0x54,0x00,0xBB,0x0B,0x54,0x14,0xB4,0x0B,0x55,0x00,0xBB,
  0x0B,0x55,0x14,0xB4,0x0B,0x56,0x00,0xBB,0x0B,0x56,0x0D,0xB0,0x01,0x01,0x1B,0xB4,
  0x0B,0x57,0x00,0xBB,0x0B,0x57,0x14,0xB4,0x0B,0x58,0x00,0xBB,0x0B,0x58,0x14,0xB4,
  0x0B,0x59,0x00,0xBB,0x0B,0x59,0x0D,0xB0,0x01,0x02,0x03,0x87,0x29,0x40,0x04,0xB4,
  0x0B,0x5A,0x00,0xBB,0x0B,0x5A,0x05,0x86,0x48,0x40,0x00,0x96,0x4D,0x64,0x00,0x97,
  0x2D,0x69,0x0A,0xB0,0x0B,0x6E,0x05,0xB4,0x0B,0x5B,0x00,0xBB,0x0B,0x5B,0x0F,0xB4,
  0x0B,0x5C,0x00,0xBB,0x0B,0x5C,0x26,0xB0,0x01,0x03,0x28,0xB0,0x01,0x04,0x02,0xB0,
  0x0B,0x6F,0x3A,0xB0,0x01,0x05,0x02,0xB0,0x0B,0x70,0x26,0xB0,0x01,0x06,0x16,0xB0,
  0x0B,0x71,0x0A,0x86,0x4D,0x40,0x00,0x96,0x51,0x63,0x08,0xB0,0x01,0x07,0x16,0xB0,
  0x0B,0x72,0x12,0xB0,0x01,0x08,0x28,0xB0,0x01,0x09,0x28,0xB0,0x01,0x0A,0x02,0xB0,
  0x0B,0x71,0x0E,0xB0,0x01,0x0B,0x15,0xB0,0x01,0x0D,0x28,0xB0,0x01,0x0E,0x14,0xB0,
  0x01,0x0F,0x06,0x87,0x2D,0x40,0x09,0x86,0x51,0x40,0x00,0x96,0x4D,0x67,0x00,0x97,
  0x30,0x71,0x05,0xB0,0x01,0x11,0x0F,0xB0,0x01,0x14,0x0A,0xB0,0x0B,0x70,0x3C,0xB0,
  0x0B,0x6F,0x28,0xB0,0x0B,0x6E,0x14,0xB0,0x0B,0x6D,0x28,0xB0,0x0B,0x6C,0x14,0xB0,
  0x0B,0x6B,0x1E,0x86,0x4D,0x40,0x00,0x96,0x48,0x68,0x0A,0xB0,0x0B,0x6A,0x14,0xB0,
  0x0B,0x69,0x14,0xB0,0x0B,0x68,0x14,0xB0,0x0B,0x67,0x14,0xB0,0x0B,0x66,0x14,0xB0,
  0x0B,0x65,0x14,0xB0,0x0B,0x64,0x14,0xB0,0x0B,0x62,0x14,0xB0,0x0B,0x61,0x14,0xB0,
  0x0B,0x60,0x14,0xB0,0x0B,0x5F,0x14,0xB0,0x0B,0x5D,0x01,0x87,0x30,0x40,0x09,0x85,
  0x48,0x40,0x00,0x85,0x45,0x40,0x00,0x85,0x41,0x40,0x00,0x86,0x48,0x40,0x00,0x86,
  0x35,0x40,0x00,0x95,0x48,0x58,0x00,0x95,0x45,0x58,0x00,0x95,0x41,0x58,0x00,0x96,
  0x45,0x69,0x00,0x96,0x35,0x6E,0x00,0x97,0x29,0x6E,0x0A,0xB0,0x0B,0x5C,0x14,0xB0,
  0x0B,0x5A,0x14,0xB0,0x0B,0x59,0x14,0xB0,0x0B,0x57,0x14,0xB0,0x0B,0x56,0x14,0xB0,
  0x0B,0x54,0x14,0xB0,0x0B,0x52,0x14,0xB0,0x0B,0x50,0x14,0xB0,0x0B,0x4F,0x14,0xB0,
  0x0B,0x4D,0x14,0xB0,0x0B,0x4B,0x14,0xB0,0x0B,0x49,0x0A,0x86,0x45,0x40,0x00,0x96,
  0x48,0x66,0x0A,0xB0,0x0B,0x47,0x14,0xB0,0x0B,0x45,0x14,0xB0,0x0B,0x43,0x14,0xB0,
  0x0B,0x41,0x14,0xB0,0x0B,0x3E,0x14,0xB0,0x0B,0x3C,0x14,0xB0,0x0B,0x3A,0x14,0xB0,
  0x0B,0x37,0x14,0xB0,0x0B,0x35,0x14,0xB0,0x0B,0x33,0x14,0xB0,0x0B,0x30,0x14,0xB0,
  0x0B,0x2E,0x01,0x87,0x29,0x40,0x09,0x86,0x48,0x40,0x00,0x96,0x4D,0x64,0x00,0x97,
  0x2D,0x69,0x0A,0xB0,0x0B,0x2B,0x14,0xB0,0x0B,0x28,0x14,0xB0,0x0B,0x26,0x14,0xB0,
  0x0B,0x23,0x14,0xB0,0x0B,0x20,0x14,0xB0,0x0B,0x1D,0x14,0xB0,0x0B,0x1A,0x14,0xB0,
  0x0B,0x18,0x14,0xB0,0x0B,0x15,0x0A,0x80,0x41,0x40,0x0A,0xB0,0x0B,0x12,0x14,0xB0,
  0x0B,0x0E,0x1E,0x86,0x4D,0x40,0x00,0x96,0x51,0x63,0x6F,0xB0,0x01,0x00,0x78,0x87,
  0x2D,0x40,0x09,0x86,0x51,0x40,0x00,0x96,0x4D,0x67,0x00,0x97,0x30,0x71,0x81,0x70,
  0x86,0x4D,0x40,0x00,0x96,0x48,0x68,0x81,0x34,0xB0,0x0B,0x64,0x33,0x87,0x30,0x40,
  0x09,0x86,0x48,0x40,0x00,0x86,0x35,0x40,0x00,0x96,0x45,0x69,0x00,0x96,0x35,0x6E,
  0x00,0x97,0x29,0x6E,0x81,0x70,0x86,0x45,0x40,0x00,0x96,0x48,0x66,0x81,0x67,0x87,
  0x29,0x40,0x09,0x86,0x48,0x40,0x00,0x96,0x4D,0x64,0x00,0x97,0x2D,0x69,0x81,0x70,
  0x86,0x4D,0x40,0x00,0x96,0x51,0x63,0x81,0x67,0x87,0x2D,0x40,0x09,0x86,0x51,0x40,
  0x00,0xFF,0x51,0x03,0x0B,0xE3,0xD4,0x00,0x96,0x4D,0x67,0x00,0x97,0x30,0x71,0x78,
  0xFF,0x51,0x03,0x0C,0x0B,0xE1,0x28,0xFF,0x51,0x03,0x0C,0x35,0x00,0x28,0xFF,0x51,
  0x03,0x0C,0x5F,0x3A,0x28,0x86,0x4D,0x40,0x00,0xFF,0x51,0x03,0x0C,0x8A,0x9D,0x00,
  0x96,0x48,0x68,0x14,0xFF,0x51,0x03,0x0C,0xB7,0x35,0x00,0xB4,0x0B,0x5B,0x14,0xFF,
  0x51,0x03,0x0C,0xE5,0x0E,0x14,0xFF,0x51,0x03,0x0D,0x14,0x36,0x05,0xBB,0x0B,0x5B,
  0x0F,0xFF,0x51,0x03,0x0D,0x44,0xBD,0x05,0xB4,0x0B,0x5A,0x0F,0xFF,0x51,0x03,0x0D,
  0x76,0xB0,0x14,0xFF,0x51,0x03,0x0D,0xAA,0x22,0x0A,0xBB,0x0B,0x5A,0x0A,0xFF,0x51,
  0x03,0x0D,0xDF,0x22,0x14,0xFF,0x51,0x03,0x0E,0x15,0xC4,0x14,0xFF,0x51,0x03,0x0E,
  0x4E,0x1C,0x14,0xFF,0x51,0x03,0x0E,0xC4,0x3D,0x14,0xFF,0x51,0x03,0x0F,0x02,0x36,
  0x0B,0x87,0x30,0x40,0x09,0x86,0x48,0x40,0x00,0x86,0x35,0x40,0x00,0xFF,0x51,0x03,
  0x0F,0x84,0x75,0x00,0x96,0x3C,0x69,0x00,0x96,0x35,0x6E,0x00,0x97,0x29,0x6E,0x14,
  0xFF,0x51,0x03,0x0F,0xC8,0xF2,0x05,0xFF,0x51,0x03,0x10,0x0F,0xD7,0x14,0xB4,0x0B,
  0x59,0x0F,0xFF,0x51,0x03,0x11,0xF3,0x96,0x1E,0xBB,0x0B,0x59,0x37,0xB4,0x0B,0x58,
  0x2D,0xBB,0x0B,0x58,0x0F,0xB4,0x0B,0x57,0x23,0x96,0x41,0x66,0x05,0xB4,0x0B,0x56,
  0x05,0xBB,0x0B,0x57,0x28,0xBB,0x0B,0x56,0x0F,0xB4,0x0B,0x55,0x28,0xB4,0x0B,0x54,
  0x05,0xBB,0x0B,0x55,0x23,0xB4,0x0B,0x53,0x05,0xBB,0x0B,0x54,0x23,0xB4,0x0B,0x52,
  0x05,0xBB,0x0B,0x53,0x0F,0xB4,0x0B,0x51,0x19,0xBB,0x0B,0x52,0x0A,0x96,0x45,0x64,
  0x05,0xB4,0x0B,0x50,0x05,0xBB,0x0B,0x51,0x23,0xB4,0x0B,0x4F,0x05,0xBB,0x0B,0x50,
  0x0F,0xB4,0x0B,0x4E,0x14,0xB4,0x0B,0x4D,0x05,0xBB,0x0B,0x4F,0x14,0xBB,0x0B,0x4E,
  0x0F,0xB4,0x0B,0x4C,0x05,0xBB,0x0B,0x4D,0x0F,0xB4,0x0B,0x4B,0x14,0xB4,0x0B,0x4A,
  0x05,0xBB,0x0B,0x4C,0x14,0xBB,0x0B,0x4B,0x0F,0xB4,0x0B,0x49,0x05,0xBB,0x0B,0x4A,
  0x0F,0xB4,0x0B,0x48,0x0F,0x96,0x48,0x63,0x05,0xB4,0x0B,0x47,0x05,0xBB,0x0B,0x49,
  0x0F,0xB4,0x0B,0x46,0x05,0xBB,0x0B,0x48,0x0F,0xB4,0x0B,0x45,0x05,0xBB,0x0B,0x47,
  0x0F,0xB4,0x0B,0x44,0x05,0xBB,0x0B,0x46,0x0F,0xB4,0x0B,0x43,0x05,0xBB,0x0B,0x45,
  0x0F,0xB4,0x0B,0x42,0x05,0xBB,0x0B,0x44,0x0F,0xB4,0x0B,0x41,0x05,0xBB,0x0B,0x43,
  0x0F,0xB4,0x0B,0x40,0x05,0xBB,0x0B,0x42,0x0F,0xB4,0x0B,0x3F,0x05,0xBB,0x0B,0x41,
  0x0F,0xB4,0x0B,0x3E,0x05,0xBB,0x0B,0x40,0x0F,0xB4,0x0B,0x3D,0x05,0xBB,0x0B,0x3F,
  0x0F,0xB4,0x0B,0x3C,0x05,0xBB,0x0B,0x3E,0x0F,0xB4,0x0B,0x3B,0x05,0xBB,0x0B,0x3D,
  0x0F,0xB4,0x0B,0x3A,0x05,0xBB,0x0B,0x3C,0x0F,0xB4,0x0B,0x39,0x05,0xBB,0x0B,0x3B,
  0x0F,0xB4,0x0B,0x38,0x05,0xBB,0x0B,0x3A,0x0F,0xB4,0x0B,0x36,0x05,0xBB,0x0B,0x39,
  0x0F,0xB4,0x0B,0x35,0x05,0xBB,0x0B,0x38,0x0A,0x96,0x4D,0x63,0x05,0xB4,0x0B,0x34,
  0x05,0xBB,0x0B,0x36,0x0F,0xB4,0x0B,0x33,0x05,0xBB,0x0B,0x35,0x0F,0xB4,0x0B,0x31,
  0x05,0xBB,0x0B,0x34,0x0F,0xB4,0x0B,0x30,0x05,0xBB,0x0B,0x33,0x0F,0xB4,0x0B,0x2F,
  0x05,0xBB,0x0B,0x31,0x0F,0xB4,0x0B,0x2D,0x05,0xBB,0x0B,0x30,0x0F,0xB4,0x0B,0x2C,
  0x05,0xBB,0x0B,0x2F,0x0F,0xB4,0x0B,0x2B,0x05,0xBB,0x0B,0x2D,0x0F,0xB4,0x0B,0x29,
  0x05,0xBB,0x0B,0x2C,0x0F,0xB4,0x0B,0x28,0x05,0xBB,0x0B,0x2B,0x0F,0xB4,0x0B,0x26,
  0x05,0xBB,0x0B,0x29,0x0F,0xB4,0x0B,0x25,0x05,0xBB,0x0B,0x28,0x0A,0x86,0x41,0x40,
  0x05,0xB4,0x0B,0x24,0x05,0xBB,0x0B,0x26,0x0F,0xB4,0x0B,0x22,0x05,0xBB,0x0B,0x25,
  0x0F,0xB4,0x0B,0x21,0x05,0xBB,0x0B,0x24,0x0F,0xB4,0x0B,0x1F,0x05,0xBB,0x0B,0x22,
  0x0F,0xB4,0x0B,0x1D,0x05,0xBB,0x0B,0x21,0x0F,0xB4,0x0B,0x1C,0x05,0xBB,0x0B,0x1F,
  0x0A,0x86,0x3C,0x40,0x00,0x86,0x35,0x40,0x00,0x86,0x48,0x40,0x05,0xB4,0x0B,0x1A,
  0x05,0xBB,0x0B,0x1D,0x0F,0xB4,0x0B,0x19,0x05,0xBB,0x0B,0x1C,0x0F,0xB4,0x0B,0x17,
  0x05,0xBB,0x0B,0x1A,0x0F,0xB4,0x0B,0x15,0x05,0xBB,0x0B,0x19,0x0F,0xB4,0x0B,0x14,
  0x05,0xBB,0x0B,0x17,0x0F,0xB4,0x0B,0x12,0x05,0xBB,0x0B,0x15,0x0F,0xB4,0x0B,0x10,
  0x05,0xBB,0x0B,0x14,0x0F,0xB4,0x0B,0x0E,0x05,0xBB,0x0B,0x12,0x14,0xBB,0x0B,0x10,
  0x14,0xBB,0x0B,0x0E,0x32,0x86,0x45,0x40,0x3C,0x8B,0x4D,0x40,0x3C,0x84,0x4D,0x40,
  0x00,0x86,0x4D,0x40,0x84,0x1C,0x87,0x29,0x40,0x82,0x2C,0x85,0x48,0x40,0x00,0x85,
  0x45,0x40,0x00,0x85,0x41,0x40,0x81,0xBD,0x30,0x96,0x56,0x58,0x83,0x60,0x86,0x56,
  0x40,0x00,0xFF,0x2F,0x00,};
  

void disable_timer( void )
{
  Timer1.stop();
}
void NSX1_MIDI_WRITE(unsigned char* buf , int num ){
  int i;
  for(i=0;i<num;i++){
   Serial.write(buf[i]);
/*
    Serial.print(buf[i],HEX) ; 
    Serial.print(" ") ;
*/
  }  
//  Serial.print("\n") ;
}
unsigned char midi_read(void){
  unsigned char myChar;
    myChar =  pgm_read_byte_near(SMF_ROM + read_ptr); // 
    read_ptr++;
  return myChar;
}

unsigned int delta_time_read(void){
  unsigned char  r_buf;
  unsigned int ret = 0;
  while(1){
    r_buf = midi_read();
    ret = (ret <<7) | (r_buf & 0x7f);
    if((r_buf & 0x80) == 0) break;
  }


  TIMER += (ret * tempo / delta_time);
  /*
  Serial.print("delta=");
   Serial.print(ret,DEC) ; Serial.print("\n") ;
   Serial.print(tempo,DEC) ; Serial.print("\n") ;
   Serial.print(delta_time,DEC) ; Serial.print("\n") ;
   Serial.print("TIMER=") ;
   Serial.print(TIMER,2) ; Serial.print("\n") ;
   */
  return ret;
}
void midi_play(void){
  unsigned char buf[256];
  int i = 2;
  int cnt ;
  buf[0] = midi_read();
  if(buf[0] & 0x80){
    STATUS = buf[0];
    buf[1] = midi_read();
  }
  else{
    buf[1] = buf[0];
    buf[0] = STATUS;
  }

  if((STATUS & 0xf0) == 0x80){
    buf[2] = midi_read();
    NSX1_MIDI_WRITE(&buf[0] ,3);
  }
  else if((STATUS & 0xf0) == 0x90){
    buf[2] = midi_read();
    NSX1_MIDI_WRITE(&buf[0] ,3);
  }
  else if((STATUS & 0xf0) == 0xA0){
    buf[2] = midi_read();
    NSX1_MIDI_WRITE(&buf[0] ,3);
  }
  else if((STATUS & 0xf0) == 0xB0){
    buf[2] = midi_read();
    NSX1_MIDI_WRITE(&buf[0] ,3);
  }
  else if((STATUS & 0xf0) == 0xC0){
    NSX1_MIDI_WRITE(&buf[0] ,2);
  }
  else if((STATUS & 0xf0) == 0xD0){
    NSX1_MIDI_WRITE(&buf[0] ,2);
  }
  else if((STATUS & 0xf0) == 0xE0){
    buf[2] = midi_read();
    NSX1_MIDI_WRITE(&buf[0] ,3);
  }
  else if((STATUS & 0xf0) == 0xF0){
    switch(	STATUS & 0x0f ){
    case 0x00 : //sysex
    case 0x07 : //Sysex2
      cnt = buf[1];
      for(i=1;i<cnt+1;i++){
        buf[i] = midi_read();
      }
      NSX1_MIDI_WRITE(&buf[0] ,cnt +1);
      break;
    case 0x0f:
      switch ( buf[1] ){
      case 0x51: //tempo
        midi_read(); // len
        tempo = midi_read();
        tempo = (tempo << 8 ) | midi_read();
        tempo = (tempo << 8 ) | midi_read();
        tempo = tempo / 1000 ;
        break;
      case 0x2f:
        midi_read(); // len
        disable_timer();
        STATE = 2;
        break;
      default:
        cnt = midi_read(); // len
        for(i=0;i<cnt;i++) midi_read();
        break;
      }
      break;
    }
  }
}



void smf_main_loop(void){
  int  file_count;
  if(STATE == 1){
    if(TIMER < tick_count){
      midi_play();
      file_count = delta_time_read();
    }
  }
}

void smf_init(void){
  TIMER = 0;
  tick_count = 0;
  STATUS = 0x00;
  tempo = 0x07A120 ;//tempo = 120
  tempo = tempo / 1000 ;
  //format 0 only
  read_ptr = 0x0c;
  //delta_time_read
  delta_time = (midi_read() << 8) | midi_read();
  //first delta time
  read_ptr = 0x16;
  TIMER = delta_time_read() * tempo / delta_time ;
  STATE = 1;
}
int k;
void timerIsr()
{
  // Toggle LED
  digitalWrite( 13, digitalRead( 13 ) ^ 1 );
  tick_count += 10;
  
    unsigned char myChar;
    // Toggle LED
    digitalWrite( 13, digitalRead( 13 ) ^ 1 );
    /*
    myChar =  pgm_read_byte_near(SMF_ROM + k); // 1
    k++;
    Serial.print(myChar,HEX) ; 
    Serial.print(" ") ;
    if(k%16==0)Serial.print("\n") ;
    */
}                    

void setup() {  
  // initialize the digital pin as an output.
  pinMode(led, OUTPUT);  
  delay(3000);    // Wait a second for booting eVY1-Shleld.

  Timer1.initialize(10000); // set a timer of length 100000 microseconds (or 0.1 sec - or 10Hz => the led will blink 5 times, 5 cycles of on-and-off, per second)
  Timer1.attachInterrupt( timerIsr ); // attach the service routine here
  //  Set MIDI baud rate:
   Serial.begin(31250);
//  Serial.begin(38400);
  smf_init();


}

void loop() {

  smf_main_loop();  

}

